<svg id="e6s60xm9hw1r1" xmlns="http://www.w3.org/2000/svg" xmlns:xlink="http://www.w3.org/1999/xlink" viewBox="0 0 1920 1080" shape-rendering="geometricPrecision" text-rendering="geometricPrecision"><style><![CDATA[#e6s60xm9hw1r2_to {animation: e6s60xm9hw1r2_to__to 3000ms linear infinite normal forwards}@keyframes e6s60xm9hw1r2_to__to { 0% {transform: translate(1561.108337px,683.567245px)} 50% {transform: translate(1561.108337px,659.713020px)} 100% {transform: translate(1561.108337px,683.567244px)} }]]></style><g id="e6s60xm9hw1r2_to" transform="translate(1561.108337,683.567245)"><g id="e6s60xm9hw1r2" transform="translate(-1561.108337,-683.567245)"><path id="e6s60xm9hw1r3" d="M1469.460000,643.720000C1469.460000,643.720000,1464.650000,628.800000,1460.070000,622.010000C1455.490000,615.220000,1448.750000,625.240000,1450.560000,630.910000C1450.560000,630.910000,1444.280000,622.400000,1438.890000,619.910000C1419.730000,610.910000,1403.040000,641.420000,1425.890000,657.190000C1443.570000,668.600000,1451.440000,672.890000,1451.440000,672.890000Z" fill="rgb(150,203,238)" stroke="none" stroke-width="1"/><path id="e6s60xm9hw1r4" style="isolation:isolate" d="M1464.370000,652C1464.370000,646.180000,1464.280000,641.580000,1464.280000,641.580000C1464.280000,641.580000,1447.480000,660.240000,1444.350000,658.970000C1428.750000,653.970000,1418.120000,639.300000,1415.090000,634.670000C1413.950000,642.220000,1416.760000,650.880000,1425.900000,657.190000C1443.580000,668.600000,1451.450000,672.890000,1451.450000,672.890000Z" opacity="0.5" fill="rgb(150,203,238)" stroke="none" stroke-width="1"/><path id="e6s60xm9hw1r5" d="M1653.640000,723.780000C1653.640000,723.780000,1654.500000,740.370000,1656.800000,748.360000C1659.100000,756.350000,1668.500000,749.140000,1668.490000,743.150000C1668.490000,743.150000,1670.950000,752.430000,1675.290000,756.670000C1690.730000,771.740000,1715.730000,748.460000,1698.820000,725.760000C1685.490000,708.940000,1679.350000,702.130000,1679.350000,702.130000Z" fill="rgb(150,203,238)" stroke="none" stroke-width="1"/><path id="e6s60xm9hw1r6" style="isolation:isolate" d="M1656.800000,748.360000C1658.800000,755.360000,1666.310000,750.670000,1668.100000,745.360000C1666.660000,747.020000,1664.010000,746.970000,1662.100000,744.230000C1660.190000,741.490000,1662.530000,722.640000,1662.530000,722.640000C1662.170000,721.510000,1658.400000,722.030000,1654.830000,722.800000L1653.660000,723.800000C1653.660000,723.800000,1654.500000,740.370000,1656.800000,748.360000Z" opacity="0.5" fill="rgb(150,203,238)" stroke="none" stroke-width="1"/><path id="e6s60xm9hw1r7" d="M1475,565.910000C1475,565.910000,1460.380000,562.020000,1455.180000,571.620000C1449.980000,581.220000,1456,629.280000,1466.240000,631.620000C1473.240000,632.820000,1482.240000,629.550000,1482.240000,629.550000Z" fill="rgb(150,203,238)" stroke="none" stroke-width="1"/><path id="e6s60xm9hw1r8" d="M1631.180000,545.760000C1631.180000,545.760000,1644.490000,538.270000,1651.700000,546.260000C1658.910000,554.250000,1663.900000,602.460000,1654.490000,607.350000C1648,610.290000,1638.490000,609.420000,1638.490000,609.420000Z" fill="rgb(150,203,238)" stroke="none" stroke-width="1"/><path id="e6s60xm9hw1r9" style="isolation:isolate" d="M1649.060000,594.640000C1651.220000,575.370000,1642.510000,551.870000,1638.820000,543C1636.155172,543.552465,1633.582653,544.481804,1631.180000,545.760000L1638.450000,609.420000C1638.450000,609.420000,1648,610.290000,1654.450000,607.350000C1656.700000,606.180000,1658.120000,602.510000,1658.890000,597.530000C1654,598.280000,1648.830000,598,1649.060000,594.640000Z" opacity="0.5" fill="rgb(150,203,238)" stroke="none" stroke-width="1"/><path id="e6s60xm9hw1r10" style="isolation:isolate" d="M1468.640000,617.920000C1462.200000,599.760000,1465.370000,574.720000,1466.950000,565.180000C1469.637815,565.041553,1472.331634,565.287364,1474.950000,565.910000L1482.220000,629.570000C1482.220000,629.570000,1473.150000,632.840000,1466.220000,631.640000C1463.770000,631.080000,1461.570000,627.880000,1459.700000,623.240000C1464.740000,622.690000,1469.630000,621.150000,1468.640000,617.920000Z" opacity="0.5" fill="rgb(150,203,238)" stroke="none" stroke-width="1"/><path id="e6s60xm9hw1r11" d="M1553.220000,580.940000L1553.220000,580.940000C1508.280000,586.740000,1476.280000,630.150000,1481.740000,677.940000L1490.680000,756.140000C1492.870000,775.320000,1509.280000,788.980000,1527.330000,786.650000L1624.690000,774.090000C1642.690000,771.760000,1655.600000,754.320000,1653.410000,735.090000L1644.470000,656.890000C1639,609.150000,1598.160000,575.140000,1553.220000,580.940000Z" fill="rgb(228,228,229)" stroke="none" stroke-width="1"/><path id="e6s60xm9hw1r12" d="M1644.690000,658.830000C1616.690000,677.360000,1601.360000,711.440000,1605.330000,746.220000L1608.750000,776.090000L1624.690000,774.090000C1642.690000,771.760000,1655.600000,754.320000,1653.410000,735.090000Z" fill="rgb(224,69,48)" stroke="none" stroke-width="1"/><path id="e6s60xm9hw1r13" d="M1482,679.830000L1482,679.830000L1490.720000,756.090000C1492.910000,775.270000,1509.320000,788.930000,1527.370000,786.600000L1543.370000,784.540000L1539.950000,754.670000C1535.890000,719.890000,1513.310000,690.710000,1482,679.830000Z" fill="rgb(224,69,48)" stroke="none" stroke-width="1"/><path id="e6s60xm9hw1r14" style="isolation:isolate" d="M1613,598.240000C1622.019808,610.769331,1627.651590,625.415409,1629.350000,640.760000L1638.290000,718.960000C1640.480000,738.140000,1627.620000,755.580000,1609.570000,757.960000L1512.210000,770.520000C1505.915835,771.329826,1499.524760,770.188437,1493.900000,767.250000C1499.900000,780.250000,1513.130000,788.490000,1527.430000,786.650000L1624.790000,774.090000C1642.790000,771.760000,1655.700000,754.320000,1653.510000,735.090000L1644.570000,656.890000C1642.126122,633.962299,1630.792046,612.906121,1613,598.240000Z" opacity="0.5" fill="rgb(228,228,229)" stroke="none" stroke-width="1"/><path id="e6s60xm9hw1r15" d="M1653.640000,723.780000L1679.350000,702.130000C1654.660000,669.030000,1630.240000,658.790000,1612.500000,656.580000C1612.240000,655.160000,1612.100000,654.360000,1612.100000,654.360000C1612.100000,654.360000,1601.290000,638.210000,1563.100000,643.140000C1526.790000,647.820000,1518.790000,664.680000,1518.100000,666.360000C1505.320000,663.360000,1488.450000,656.930000,1469.510000,643.720000L1451.510000,672.840000C1478.420000,691.640000,1502.730000,699.200000,1520.070000,702.120000C1520.960000,715.790000,1522.070000,730.760000,1523.370000,741.920000C1524.520000,751.920000,1527.370000,760.850000,1532.490000,767.840000C1526.710000,782.520000,1518.780000,805.840000,1515.810000,829.310000L1552.330000,834.520000C1554.630000,816.900000,1561.420000,797.050000,1566.890000,783.520000C1575.515470,783.618513,1584.108193,782.442490,1592.390000,780.030000C1600.760000,791.760000,1611.910000,809.400000,1618.150000,826.030000L1652.440000,811.680000C1643.980000,788.900000,1630.440000,767.620000,1621.440000,754.960000C1624.330000,747.210000,1625,738.350000,1623.930000,728.960000C1622.790000,718.960000,1620.860000,706.130000,1618.930000,693.890000C1628.440000,697.750000,1640.510000,706.180000,1653.640000,723.780000Z" fill="rgb(255,255,255)" stroke="none" stroke-width="1"/><path id="e6s60xm9hw1r16" d="M1641.400000,561.770000C1622.130000,484.960000,1546.490000,498.110000,1546.490000,498.110000C1546.490000,498.110000,1470.080000,504.580000,1468.670000,584.060000C1467.260000,663.540000,1535.060000,668.970000,1565.570000,665.060000C1596.080000,661.150000,1660.680000,638.570000,1641.400000,561.770000Z" fill="rgb(255,255,255)" stroke="none" stroke-width="1"/><path id="e6s60xm9hw1r17" d="M1641.400000,561.770000C1636.560000,542.460000,1628.150000,528.840000,1618.270000,519.270000C1625.670000,528.270000,1631.880000,540.080000,1635.770000,555.580000C1655.050000,632.390000,1590.450000,654.910000,1559.940000,658.850000C1540.630000,661.340000,1506.410000,660.050000,1484.220000,638.650000C1505.810000,666.010000,1544.540000,667.750000,1565.570000,665.040000C1596.080000,661.100000,1660.680000,638.570000,1641.400000,561.770000Z" fill="rgb(228,228,229)" stroke="none" stroke-width="1"/><path id="e6s60xm9hw1r18" d="M1576.270000,759C1543.460000,763.230000,1523.270000,756.220000,1522.460000,755.920000C1518.093189,754.203567,1515.824904,749.377429,1517.290000,744.920000C1517.868194,742.846972,1519.247611,741.089268,1521.123774,740.034864C1522.999937,738.980461,1525.218585,738.716052,1527.290000,739.300000L1527.660000,739.420000C1528.040000,739.550000,1545.660000,745.420000,1574.300000,741.730000C1602.940000,738.040000,1618,727.900000,1618.100000,727.800000C1621.691648,725.323051,1626.610104,726.217316,1629.100000,729.800000C1629.212704,729.960671,1629.316203,730.127606,1629.410000,730.300000C1631.889808,734.289860,1630.883799,739.515884,1627.100000,742.300000C1626.400000,742.830000,1609.160000,754.730000,1576.270000,759Z" fill="rgb(150,203,238)" stroke="none" stroke-width="1"/><path id="e6s60xm9hw1r19" style="isolation:isolate" d="M1626.570000,737.570000C1625.850000,738.080000,1608.570000,749.980000,1575.720000,754.230000C1542.870000,758.480000,1522.720000,751.450000,1521.910000,751.150000C1519.650022,750.306929,1517.861529,748.533006,1517,746.280000C1516.292690,750.388448,1518.575353,754.427006,1522.460000,755.940000C1523.300000,756.240000,1543.460000,763.250000,1576.270000,759.020000C1609.080000,754.790000,1626.400000,742.870000,1627.120000,742.360000C1630.446484,739.915242,1631.683183,735.520837,1630.120000,731.700000C1629.795140,734.061915,1628.510907,736.185422,1626.570000,737.570000Z" opacity="0.5" fill="rgb(150,203,238)" stroke="none" stroke-width="1"/><path id="e6s60xm9hw1r20" d="M1566.870000,677C1538.380000,680.680000,1517.360000,672.500000,1516.050000,672C1513.174051,670.739124,1511.779652,667.454831,1512.870000,664.510000C1513.309718,663.151713,1514.271293,662.023902,1515.542962,661.374938C1516.814631,660.725974,1518.292102,660.609080,1519.650000,661.050000L1519.870000,661.130000C1520.520000,661.380000,1564.240000,678.130000,1609.250000,649.440000C1610.436691,648.690203,1611.872736,648.442802,1613.241917,648.752274C1614.611099,649.061747,1615.801142,649.902716,1616.550000,651.090000C1616.622507,651.203231,1616.689258,651.320046,1616.750000,651.440000C1618.334483,654.184681,1617.511124,657.688336,1614.870000,659.440000C1600.364547,668.769132,1583.971219,674.766358,1566.870000,677Z" fill="rgb(150,203,238)" stroke="none" stroke-width="1"/><path id="e6s60xm9hw1r21" style="isolation:isolate" d="M1517.170000,666.760000C1517.860000,667.010000,1564.680000,683.310000,1613.260000,654.210000C1614.531069,653.441658,1616.045163,653.180977,1617.500000,653.480000C1617.401785,652.740574,1617.160638,652.027321,1616.790000,651.380000C1615.430483,648.802464,1612.242447,647.809836,1609.660000,649.160000L1609.290000,649.380000C1564.290000,678.030000,1520.560000,661.320000,1519.910000,661.070000C1517.129323,660.031159,1514.032678,661.440760,1512.990000,664.220000L1512.910000,664.450000C1512.627281,665.275379,1512.521654,666.151068,1512.600000,667.020000C1514.026272,666.321863,1515.673750,666.228134,1517.170000,666.760000Z" opacity="0.5" fill="rgb(150,203,238)" stroke="none" stroke-width="1"/><path id="e6s60xm9hw1r22" d="M1584.610000,678.100000L1573.610000,680.770000C1569.512190,681.770735,1565.317290,682.320666,1561.100000,682.410000L1549.020000,682.660000C1546.093284,682.826501,1543.855170,685.333190,1544.020000,688.260000C1544.020000,688.420000,1544.020000,688.570000,1544.020000,688.720000L1546.200000,707.720000C1546.432014,710.391935,1548.658092,712.449108,1551.340000,712.470000L1564.050000,712.230000C1568.263270,712.147369,1572.454862,711.604138,1576.550000,710.610000L1588.950000,707.610000C1591.552673,706.893830,1593.226678,704.365740,1592.870000,701.690000L1590.700000,682.690000C1590.590486,681.336648,1589.946863,680.082523,1588.911210,679.204470C1587.875558,678.326416,1586.533035,677.896635,1585.180000,678.010000C1584.988239,678.027523,1584.797831,678.057588,1584.610000,678.100000Z" fill="rgb(215,235,248)" stroke="none" stroke-width="1"/><path id="e6s60xm9hw1r23" d="M1556.730000,691.650000C1557.059310,693.942861,1555.487553,696.075642,1553.200000,696.440000C1552.115237,696.548874,1551.031661,696.222300,1550.187716,695.532140C1549.343771,694.841981,1548.808611,693.844789,1548.700000,692.760000L1548.700000,692.690000C1548.387828,690.398061,1549.957382,688.274286,1552.240000,687.900000C1553.322167,687.788184,1554.404407,688.111054,1555.248419,688.797518C1556.092431,689.483981,1556.629008,690.477748,1556.740000,691.560000Z" fill="rgb(238,82,56)" stroke="none" stroke-width="1"/><path id="e6s60xm9hw1r24" d="M1558.070000,703.340000C1558.399310,705.632861,1556.827553,707.765642,1554.540000,708.130000C1553.455237,708.238874,1552.371661,707.912300,1551.527716,707.222140C1550.683771,706.531981,1550.148611,705.534789,1550.040000,704.450000L1550.040000,704.380000C1549.727388,702.091367,1551.291429,699.969056,1553.570000,699.590000C1554.657957,699.478406,1555.745526,699.805034,1556.591977,700.497584C1557.438427,701.190134,1557.973947,702.191488,1558.080000,703.280000Z" fill="rgb(238,82,56)" stroke="none" stroke-width="1"/><path id="e6s60xm9hw1r25" d="M1572.210000,693.750000C1568.896066,694.193367,1565.552568,694.377259,1562.210000,694.300000C1560.840616,694.180478,1559.805409,693.008307,1559.856088,691.634652C1559.906766,690.260996,1561.025532,689.168293,1562.400000,689.150000C1569.837988,689.261645,1577.236545,688.049433,1584.250000,685.570000C1584.845290,685.351519,1585.503155,685.379631,1586.077637,685.648098C1586.652119,685.916565,1587.095713,686.403188,1587.310000,687C1587.314344,687.043224,1587.314344,687.086776,1587.310000,687.130000C1587.778297,688.440525,1587.135968,689.887964,1585.850000,690.420000C1581.446244,692.049943,1576.869425,693.167304,1572.210000,693.750000Z" fill="rgb(150,203,238)" stroke="none" stroke-width="1"/><path id="e6s60xm9hw1r26" d="M1573.460000,704.710000C1570.145599,705.148393,1566.802487,705.332264,1563.460000,705.260000C1562.080231,705.158708,1561.042585,703.960048,1561.140000,702.580000C1561.142647,701.922261,1561.406474,701.292514,1561.873440,700.829298C1562.340407,700.366082,1562.972261,700.107342,1563.630000,700.110000L1563.630000,700.110000C1571.067988,700.221645,1578.466545,699.009433,1585.480000,696.530000C1586.075384,696.310701,1586.733534,696.337146,1587.309403,696.603509C1587.885272,696.869872,1588.331592,697.354289,1588.550000,697.950000C1588.555657,697.993149,1588.555657,698.036851,1588.550000,698.080000C1589.017929,699.395982,1588.371271,700.847662,1587.080000,701.380000C1582.682461,703.007780,1578.112516,704.125101,1573.460000,704.710000Z" fill="rgb(150,203,238)" stroke="none" stroke-width="1"/><path id="e6s60xm9hw1r27" d="M1601.770000,718.430000L1597.570000,713.780000C1596.800931,712.879764,1595.588561,712.492426,1594.440000,712.780000L1588.550000,714.320000C1587.393214,714.641126,1586.496704,715.556710,1586.200000,716.720000L1584.510000,722.910000C1584.189143,724.089918,1584.482150,725.352103,1585.290000,726.270000L1589.490000,730.920000C1590.265668,731.810253,1591.471850,732.195615,1592.620000,731.920000L1598.510000,730.380000C1599.667883,730.060733,1600.565178,729.144347,1600.860000,727.980000L1602.550000,721.790000C1602.882273,720.610321,1602.587993,719.342653,1601.770000,718.430000Z" fill="rgb(150,203,238)" stroke="none" stroke-width="1"/><path id="e6s60xm9hw1r28" d="M1542.450000,726.090000L1545.450000,720.500000C1546.002561,719.450706,1547.084232,718.787128,1548.270000,718.770000L1554.340000,718.770000C1555.527030,718.782763,1556.610759,719.447604,1557.160000,720.500000L1560.160000,726.080000C1560.739571,727.160522,1560.739571,728.459478,1560.160000,729.540000L1557.160000,735.130000C1556.610759,736.182396,1555.527030,736.847237,1554.340000,736.860000L1548.280000,736.860000C1547.093111,736.837937,1546.010769,736.176294,1545.450000,735.130000L1542.450000,729.550000C1541.855662,728.473236,1541.855662,727.166764,1542.450000,726.090000Z" fill="rgb(150,203,238)" stroke="none" stroke-width="1"/><path id="e6s60xm9hw1r29" d="M1628.480000,574.820000C1613.340000,519.090000,1550.100000,529.710000,1550.100000,529.710000C1550.100000,529.710000,1486.300000,535.480000,1484.160000,593.440000C1482.020000,651.400000,1538.490000,654.440000,1563.980000,651.140000C1589.470000,647.840000,1643.620000,630.570000,1628.480000,574.820000Z" fill="rgb(6,56,73)" stroke="none" stroke-width="1"/><path id="e6s60xm9hw1r30" style="isolation:isolate" d="M1628.480000,574.820000C1624.480000,560.050000,1617.060000,549.970000,1608.370000,543.090000C1613.093806,549.562310,1616.548098,556.871293,1618.550000,564.630000C1633.690000,620.360000,1579.550000,637.630000,1554.050000,640.950000C1538.510000,642.950000,1511.480000,642.590000,1493.210000,628.890000C1509.870000,652.530000,1545.210000,653.550000,1563.980000,651.140000C1589.470000,647.850000,1643.620000,630.570000,1628.480000,574.820000Z" opacity="0.5" fill="rgb(6,56,73)" stroke="none" stroke-width="1"/><path id="e6s60xm9hw1r31" style="isolation:isolate" d="M1550.100000,529.710000C1547.260937,530.029315,1544.442846,530.513466,1541.660000,531.160000C1536.800000,553.270000,1524.300000,594.160000,1494.100000,630.160000C1500.100000,638.010000,1508.100000,643.230000,1516.940000,646.590000C1553.470000,601.670000,1566.070000,551.350000,1570.040000,529.230000C1563.396115,528.649555,1556.708260,528.810546,1550.100000,529.710000Z" opacity="0.5" fill="rgb(255,255,255)" stroke="none" stroke-width="1"/><path id="e6s60xm9hw1r32" style="isolation:isolate" d="M1590.810000,533.510000C1586.510000,555.830000,1572.650000,608.150000,1532.620000,650.700000C1538.493497,651.628770,1544.433736,652.070274,1550.380000,652.020000C1585.470000,610.550000,1598.840000,563.570000,1603.650000,539.700000C1599.617956,537.157562,1595.310391,535.080940,1590.810000,533.510000Z" opacity="0.5" fill="rgb(255,255,255)" stroke="none" stroke-width="1"/><path id="e6s60xm9hw1r33" d="M1615.830000,763.790000C1608.770000,764.700000,1601.160000,760.700000,1596.420000,755.350000C1588.950000,746.910000,1586.270000,733.490000,1589.590000,721.170000C1590.123099,718.999382,1592.303428,717.661757,1594.480000,718.170000L1594.660000,718.170000C1596.890197,718.922795,1598.129803,721.300545,1597.470000,723.560000C1594.940000,732.990000,1596.870000,743.120000,1602.400000,749.370000C1606.050000,753.510000,1612.680000,756.630000,1617,754.480000C1618.522625,753.699471,1619.639581,752.306005,1620.070000,750.650000C1620.726809,748.305798,1620.454602,745.798621,1619.310000,743.650000C1618.310731,742.056627,1617.107172,740.600926,1615.730000,739.320000C1612.870000,736.380000,1609.320000,732.730000,1608.950000,727.070000C1608.691873,723.420257,1609.905476,719.819059,1612.320000,717.070000C1614.853567,714.162066,1618.523186,712.495052,1622.380000,712.500000C1624.673542,712.655427,1626.454534,714.561198,1626.454534,716.860000C1626.454534,719.158802,1624.673542,721.064573,1622.380000,721.220000C1620.834960,721.224280,1619.363791,721.881765,1618.330000,723.030000C1617.499120,723.972095,1617.078045,725.206529,1617.160000,726.460000C1617.310000,728.630000,1618.880000,730.400000,1621.460000,733.060000C1623.419964,734.883210,1625.104268,736.981853,1626.460000,739.290000C1628.756893,743.586423,1629.284389,748.610193,1627.930000,753.290000C1626.426357,758.922981,1621.655653,763.080534,1615.870000,763.800000Z" fill="rgb(6,56,73)" stroke="none" stroke-width="1"/><path id="e6s60xm9hw1r34" d="M1539,773.700000C1537.391251,773.910268,1535.758637,773.849425,1534.170000,773.520000C1530.219560,772.633911,1526.846142,770.081054,1524.920000,766.520000C1522.569457,762.276586,1521.953043,757.287933,1523.200000,752.600000C1524.013679,750.013812,1525.170667,747.548486,1526.640000,745.270000C1528.550000,742.040000,1529.640000,739.920000,1529.330000,737.770000C1529.132260,736.550164,1528.441579,735.465325,1527.420000,734.770000C1526.146513,733.911647,1524.564221,733.645501,1523.080000,734.040000C1522.018946,734.308867,1520.894474,734.143376,1519.955871,733.580214C1519.017269,733.017053,1518.342084,732.102750,1518.080000,731.040000C1517.817916,729.977250,1518.080000,730.940000,1518.080000,730.900000C1517.498925,728.617393,1518.822783,726.282989,1521.080000,725.610000C1524.779656,724.611050,1528.731583,725.295319,1531.880000,727.480000C1534.856043,729.547947,1536.851832,732.747717,1537.400000,736.330000C1538.310000,741.920000,1535.690000,746.330000,1533.580000,749.950000C1532.535831,751.543321,1531.692763,753.259687,1531.070000,755.060000C1530.453065,757.416539,1530.757008,759.919595,1531.920000,762.060000C1532.717057,763.547121,1534.116436,764.618520,1535.760000,765C1540.440000,766,1546.170000,761.270000,1548.760000,756.330000C1552.760000,748.850000,1552.320000,738.520000,1547.760000,730.010000C1546.592391,727.923767,1547.259944,725.288691,1549.280000,724.010000C1551.179910,722.883694,1553.633124,723.510427,1554.760000,725.410000C1554.809640,725.477649,1554.849998,725.551640,1554.880000,725.630000C1560.880000,736.750000,1561.290000,750.460000,1555.940000,760.550000C1552.570000,767,1546.080000,772.790000,1539,773.700000Z" fill="rgb(6,56,73)" stroke="none" stroke-width="1"/><path id="e6s60xm9hw1r35" d="M1659.600000,711.350000C1659.600000,711.350000,1639.790000,683.050000,1615.770000,678.510000L1618.880000,693.870000C1628.440000,697.750000,1640.510000,706.180000,1653.640000,723.780000L1657.930000,720.170000Z" fill="rgb(228,228,229)" stroke="none" stroke-width="1"/><path id="e6s60xm9hw1r36" d="M1654.310000,729.570000C1652.374131,729.815753,1650.458012,728.987990,1649.310000,727.410000C1647.436467,724.875088,1647.819085,721.327177,1650.190000,719.250000L1676,697.570000C1677.054180,696.664158,1678.425061,696.214251,1679.810995,696.319274C1681.196930,696.424297,1682.484360,697.075647,1683.390000,698.130000C1683.495287,698.249850,1683.592183,698.376818,1683.680000,698.510000C1685.581372,701.039169,1685.191886,704.610181,1682.790000,706.670000L1657,728.320000C1656.238478,728.980962,1655.306243,729.414156,1654.310000,729.570000Z" fill="rgb(250,119,101)" stroke="none" stroke-width="1"/><path id="e6s60xm9hw1r37" style="isolation:isolate" d="M1703.880000,746.350000C1683.410000,766.720000,1668.490000,743.150000,1668.490000,743.150000C1668.490000,743.150000,1670.950000,752.430000,1675.290000,756.670000C1685.820000,767,1700.780000,759.390000,1703.880000,746.350000Z" opacity="0.5" fill="rgb(150,203,238)" stroke="none" stroke-width="1"/><path id="e6s60xm9hw1r38" d="M1660.250000,680.710000C1649.130000,670.460000,1638.430000,664.270000,1628.760000,660.650000C1628.240000,665.800000,1628.300000,676.190000,1636.140000,681.410000C1644.590000,687,1654.510000,686.370000,1660.250000,680.710000Z" fill="rgb(150,203,238)" stroke="none" stroke-width="1"/><path id="e6s60xm9hw1r39" d="M1470.880000,684.830000C1482.071526,690.901142,1493.917788,695.678564,1506.190000,699.070000C1506.130000,695.230000,1505.190000,682.300000,1495.250000,678.160000C1485.310000,674.020000,1475.160000,677.210000,1470.880000,684.830000Z" fill="rgb(150,203,238)" stroke="none" stroke-width="1"/><path id="e6s60xm9hw1r40" d="M1520.560000,688.150000C1520.560000,688.150000,1482.900000,678.950000,1461.060000,663.550000C1460.165398,662.915880,1459.230045,662.341306,1458.260000,661.830000L1451.450000,672.830000C1478.360000,691.630000,1502.670000,699.190000,1520.010000,702.110000C1520,702.120000,1519.380000,697.570000,1520.560000,688.150000Z" fill="rgb(228,228,229)" stroke="none" stroke-width="1"/><path id="e6s60xm9hw1r41" d="M1452.100000,678.570000C1450.809341,678.731438,1449.504771,678.407078,1448.440000,677.660000C1445.910596,675.809922,1445.231010,672.324865,1446.880000,669.660000L1465,640.570000C1465.707343,639.359760,1466.866913,638.480473,1468.223130,638.125943C1469.579347,637.771413,1471.020880,637.970744,1472.230000,638.680000C1472.349187,638.743864,1472.462906,638.817447,1472.570000,638.900000C1475.131891,640.750991,1475.818594,644.271982,1474.140000,646.950000L1456.140000,676.080000C1455.246506,677.485696,1453.757289,678.403555,1452.100000,678.570000Z" fill="rgb(250,119,101)" stroke="none" stroke-width="1"/><path id="e6s60xm9hw1r42" d="M1615.470000,803.230000C1613.030000,801.230000,1595.910000,775.760000,1595.110000,773.370000C1594.310000,770.980000,1592.280000,771.890000,1588.980000,774.160000C1585.680000,776.430000,1570.120000,780.030000,1566.320000,777.080000C1562.520000,774.130000,1561.980000,775.610000,1561.540000,776.420000C1561.100000,777.230000,1547.740000,814.050000,1547.740000,814.050000L1556.230000,815.050000C1559.118571,804.330864,1562.658482,793.797961,1566.830000,783.510000C1575.455470,783.608513,1584.048193,782.432490,1592.330000,780.020000C1599.141703,789.523601,1605.292835,799.483691,1610.740000,809.830000C1614,806.780000,1616.440000,804,1615.470000,803.230000Z" fill="rgb(228,228,229)" stroke="none" stroke-width="1"/><path id="e6s60xm9hw1r43" d="M1520,804.340000C1519.460000,806.690000,1516.250000,823.500000,1516.250000,823.500000C1516.250000,823.500000,1498.250000,808.640000,1480.710000,816.170000C1463.170000,823.700000,1463.480000,848,1463.480000,848L1546.790000,869.880000L1557,812.450000Z" fill="rgb(150,203,238)" stroke="none" stroke-width="1"/><path id="e6s60xm9hw1r44" d="M1642.750000,788.480000C1643.750000,790.620000,1650.690000,806.140000,1650.690000,806.140000C1650.690000,806.140000,1664.830000,787.140000,1683.560000,790.020000C1702.290000,792.900000,1707.380000,816.570000,1707.380000,816.570000L1631.380000,858.920000L1608.570000,805.750000Z" fill="rgb(150,203,238)" stroke="none" stroke-width="1"/><path id="e6s60xm9hw1r45" d="M1631.380000,858.910000L1707.380000,816.560000C1706.523589,813.053991,1705.258250,809.660734,1703.610000,806.450000L1627.280000,849.360000Z" fill="rgb(6,56,73)" stroke="none" stroke-width="1"/><path id="e6s60xm9hw1r46" d="M1463.430000,848L1546.740000,869.880000L1548.740000,858.880000L1465.510000,834.880000C1464.219188,839.137462,1463.519314,843.552057,1463.430000,848Z" fill="rgb(6,56,73)" stroke="none" stroke-width="1"/><path id="e6s60xm9hw1r47" d="M1609.230000,811.510000C1606.843429,811.775152,1604.566089,810.441281,1603.630000,808.230000C1602.335288,805.369735,1603.464565,801.994983,1606.220000,800.490000L1640.400000,783.230000C1641.666021,782.600406,1643.130594,782.500691,1644.470268,782.952878C1645.809942,783.405065,1646.914500,784.371951,1647.540000,785.640000C1647.600093,785.748607,1647.650295,785.862399,1647.690000,785.980000C1648.984712,788.840265,1647.855435,792.215017,1645.100000,793.720000L1611,811C1610.443280,811.269379,1609.844701,811.441851,1609.230000,811.510000Z" fill="rgb(250,119,101)" stroke="none" stroke-width="1"/><path id="e6s60xm9hw1r48" style="isolation:isolate" d="M1647.280000,789.780000L1613.100000,807C1610.520641,808.317608,1607.361490,807.297372,1606.040000,804.720000C1605.960000,804.570000,1605.890000,804.410000,1605.820000,804.250000C1605.373297,803.235843,1605.207509,802.120229,1605.340000,801.020000C1603.196062,802.736875,1602.491682,805.690327,1603.630000,808.190000C1604.566089,810.401281,1606.843429,811.735152,1609.230000,811.470000C1609.817578,811.388433,1610.388204,811.212856,1610.920000,810.950000L1645.100000,793.680000C1646.809232,792.782096,1647.957269,791.090053,1648.160000,789.170000C1647.890648,789.405918,1647.595432,789.610557,1647.280000,789.780000Z" opacity="0.5" fill="rgb(250,119,101)" stroke="none" stroke-width="1"/><path id="e6s60xm9hw1r49" d="M1557.630000,818.220000C1557.039523,818.288290,1556.441909,818.261279,1555.860000,818.140000L1518.800000,810C1515.765191,809.226014,1513.884156,806.192514,1514.540000,803.130000C1515.020951,800.141362,1517.830258,798.105956,1520.820000,798.580000L1521,798.580000L1558.070000,806.690000C1561.105980,807.454805,1562.987037,810.491052,1562.320000,813.550000C1561.945226,815.964332,1560.045912,817.855548,1557.630000,818.220000Z" fill="rgb(250,119,101)" stroke="none" stroke-width="1"/><path id="e6s60xm9hw1r50" style="isolation:isolate" d="M1560,807.570000C1560.369050,808.595093,1560.452018,809.701327,1560.240000,810.770000C1559.831776,813.154048,1557.941510,815.008041,1555.550000,815.370000C1554.959523,815.438290,1554.361909,815.411279,1553.780000,815.290000L1516.720000,807.170000C1516.053294,807.018045,1515.421899,806.739688,1514.860000,806.350000C1515.473285,808.179940,1516.984147,809.566156,1518.860000,810.020000L1555.920000,818.130000C1557.382116,818.441374,1558.907879,818.131538,1560.132730,817.274521C1561.357581,816.417504,1562.171495,815.090292,1562.380000,813.610000C1562.838442,811.304268,1561.908096,808.943222,1560,807.570000Z" opacity="0.5" fill="rgb(250,119,101)" stroke="none" stroke-width="1"/><path id="e6s60xm9hw1r51" d="M1649.070000,838.940000L1641.220000,829.790000C1637.508919,825.310394,1631.363842,823.679740,1625.920000,825.730000L1618.370000,828.590000L1619.510000,831.250000L1626.840000,828.470000C1631.232672,826.812771,1636.192990,828.126150,1639.190000,831.740000L1646.990000,840.830000L1651.990000,847.420000L1654.460000,846.040000Z" fill="rgb(6,56,73)" stroke="none" stroke-width="1"/><path id="e6s60xm9hw1r52" d="M1545.890000,836.060000C1540.066839,835.503462,1534.511510,838.626091,1531.960000,843.890000L1526.360000,854.890000L1522.540000,863.540000L1525.250000,864.250000L1528.800000,856.250000L1534.360000,845.360000C1536.428215,841.111422,1540.915992,838.592528,1545.620000,839.040000L1552.120000,839.740000L1552.630000,836.870000Z" fill="rgb(6,56,73)" stroke="none" stroke-width="1"/></g></g></svg>