<svg id="Capa_1" data-name="Capa 1" xmlns="http://www.w3.org/2000/svg" xmlns:xlink="http://www.w3.org/1999/xlink" viewBox="0 0 1920 1080"><defs><style>.cls-1{fill:url(#Degradado_sin_nombre);}.cls-2{fill:url(#Degradado_sin_nombre_2);}.cls-3{fill:url(#Degradado_sin_nombre_3);}.cls-4{fill:url(#Degradado_sin_nombre_4);}.cls-5{fill:url(#Degradado_sin_nombre_5);}.cls-6{fill:url(#Degradado_sin_nombre_6);}.cls-7{fill:url(#Degradado_sin_nombre_7);}.cls-8{fill:url(#Degradado_sin_nombre_8);}.cls-9{fill:url(#Degradado_sin_nombre_9);}.cls-10{fill:url(#Degradado_sin_nombre_10);}.cls-11{fill:url(#Degradado_sin_nombre_11);}.cls-12{fill:url(#Degradado_sin_nombre_12);}.cls-13{fill:url(#Degradado_sin_nombre_13);}.cls-14{fill:url(#Degradado_sin_nombre_14);}.cls-15{fill:url(#Degradado_sin_nombre_15);}.cls-16{fill:url(#Degradado_sin_nombre_16);}.cls-17{fill:url(#Degradado_sin_nombre_17);}.cls-18{fill:url(#Degradado_sin_nombre_18);}.cls-19{fill:url(#Degradado_sin_nombre_19);}.cls-20{fill:url(#Degradado_sin_nombre_20);}.cls-21{fill:url(#Degradado_sin_nombre_21);}.cls-22{fill:url(#Degradado_sin_nombre_22);}.cls-23{fill:url(#Degradado_sin_nombre_23);}.cls-24{fill:url(#Degradado_sin_nombre_24);}.cls-25{fill:url(#Degradado_sin_nombre_25);}.cls-26{fill:url(#Degradado_sin_nombre_26);}.cls-27{fill:url(#Degradado_sin_nombre_27);}.cls-28{fill:url(#Degradado_sin_nombre_28);}.cls-29{fill:url(#Degradado_sin_nombre_29);}.cls-30{fill:url(#Degradado_sin_nombre_30);}.cls-31{fill:url(#Degradado_sin_nombre_31);}.cls-32{fill:url(#Degradado_sin_nombre_32);}.cls-33{fill:url(#Degradado_sin_nombre_33);}.cls-34{fill:url(#Degradado_sin_nombre_34);}.cls-35{fill:url(#Degradado_sin_nombre_35);}.cls-36{fill:url(#Degradado_sin_nombre_36);}.cls-37{fill:url(#Degradado_sin_nombre_37);}.cls-38{fill:url(#Degradado_sin_nombre_38);}.cls-39{fill:url(#Degradado_sin_nombre_39);}.cls-40{fill:url(#Degradado_sin_nombre_40);}.cls-41{fill:url(#Degradado_sin_nombre_41);}.cls-42{fill:url(#Degradado_sin_nombre_42);}.cls-43{fill:url(#Degradado_sin_nombre_43);}.cls-44{fill:url(#Degradado_sin_nombre_44);}.cls-45{fill:url(#Degradado_sin_nombre_45);}.cls-46{fill:url(#Degradado_sin_nombre_46);}.cls-47{fill:url(#Degradado_sin_nombre_47);}.cls-48{fill:url(#Degradado_sin_nombre_48);}.cls-49{fill:url(#Degradado_sin_nombre_49);}.cls-50{fill:url(#Degradado_sin_nombre_50);}.cls-51{fill:url(#Degradado_sin_nombre_51);}.cls-52{fill:url(#Degradado_sin_nombre_52);}.cls-53{fill:url(#Degradado_sin_nombre_53);}.cls-54{fill:url(#Degradado_sin_nombre_54);}.cls-55{fill:url(#Degradado_sin_nombre_55);}.cls-56{fill:url(#Degradado_sin_nombre_56);}.cls-57{fill:url(#Degradado_sin_nombre_57);}.cls-58{fill:url(#Degradado_sin_nombre_58);}.cls-59{fill:url(#Degradado_sin_nombre_59);}.cls-60{fill:url(#Degradado_sin_nombre_60);}.cls-61{fill:url(#Degradado_sin_nombre_61);}.cls-62{fill:url(#Degradado_sin_nombre_62);}.cls-63{fill:url(#Degradado_sin_nombre_63);}.cls-64{fill:url(#Degradado_sin_nombre_64);}.cls-65{fill:url(#Degradado_sin_nombre_65);}.cls-66{fill:url(#Degradado_sin_nombre_66);}.cls-67{fill:url(#Degradado_sin_nombre_67);}.cls-68{fill:url(#Degradado_sin_nombre_68);}.cls-69{fill:url(#Degradado_sin_nombre_69);}.cls-70{fill:url(#Degradado_sin_nombre_70);}.cls-71{fill:#004280;opacity:0.3;}.cls-109,.cls-112,.cls-71,.cls-78,.cls-83,.cls-86,.cls-91,.cls-97{isolation:isolate;}.cls-72{fill:#e05dc1;}.cls-73{fill:#f6d;}.cls-74{fill:#cf47b5;}.cls-75,.cls-78{fill:#f56dc7;}.cls-76{fill:#b937a7;}.cls-77{fill:#d450bb;}.cls-109,.cls-112,.cls-78,.cls-83,.cls-86,.cls-91{opacity:0.5;}.cls-79{fill:#f6c301;}.cls-80{fill:#dba601;}.cls-81,.cls-86{fill:#96cbee;}.cls-82,.cls-83{fill:#e24e2d;}.cls-84,.cls-91{fill:#fff;}.cls-85{fill:#e4e4e5;}.cls-87{fill:#063849;}.cls-88{fill:#8aaedb;}.cls-89{fill:#f27a27;}.cls-90{fill:#fbffff;}.cls-92{fill:#ffde6e;}.cls-93{fill:#f4911e;}.cls-94{fill:#f8ad40;}.cls-95{fill:#fdd483;}.cls-96{fill:#f3f1ec;}.cls-101,.cls-97{fill:#230753;}.cls-100,.cls-97{opacity:0.1;}.cls-98{fill:#dcdcdc;}.cls-99{fill:#ff0e00;}.cls-102,.cls-103{fill:none;stroke-miterlimit:10;stroke-width:1.01px;}.cls-102{stroke:#ff0e00;}.cls-103{stroke:#72727c;}.cls-104{fill:#72727c;}.cls-105{fill:#ee5a29;}.cls-106{fill:#fcb551;}.cls-107,.cls-109{fill:#726658;}.cls-108{fill:#5a4a42;}.cls-110{fill:#00b6bf;}.cls-111{fill:#fe0;}.cls-112{fill:#07909f;}</style><radialGradient id="Degradado_sin_nombre" cx="337.39" cy="831" r="318.33" gradientTransform="matrix(2.47, 0, 0, -2.17, 165.24, 2342.43)" gradientUnits="userSpaceOnUse"><stop offset="0" stop-color="#0b0a65"/><stop offset="1" stop-color="#040431"/></radialGradient><radialGradient id="Degradado_sin_nombre_2" cx="-2170.38" cy="-1495.19" r="4.47" gradientTransform="translate(4127.42 -4150.92) rotate(-90) scale(2.17 2.04)" gradientUnits="userSpaceOnUse"><stop offset="0" stop-color="#f9f"/><stop offset="0.07" stop-color="#ffaeff"/><stop offset="0.12" stop-color="#e099e0"/><stop offset="0.21" stop-color="#ac76ac"/><stop offset="0.31" stop-color="#7e567e"/><stop offset="0.41" stop-color="#573c57"/><stop offset="0.52" stop-color="#382638"/><stop offset="0.62" stop-color="#1f151f"/><stop offset="0.74" stop-color="#0e090e"/><stop offset="0.86" stop-color="#030203"/><stop offset="1"/></radialGradient><radialGradient id="Degradado_sin_nombre_3" cx="-2149.59" cy="-1570.85" r="10.75" gradientTransform="matrix(1, 0, 0, -1, 0, 1080)" xlink:href="#Degradado_sin_nombre_2"/><radialGradient id="Degradado_sin_nombre_4" cx="-2014.2" cy="-1450.29" r="10.75" gradientTransform="matrix(1, 0, 0, -1, 0, 1080)" xlink:href="#Degradado_sin_nombre_2"/><radialGradient id="Degradado_sin_nombre_5" cx="-2170.05" cy="-1610.44" r="7.55" gradientTransform="matrix(1, 0, 0, -1, 0, 1080)" xlink:href="#Degradado_sin_nombre_2"/><radialGradient id="Degradado_sin_nombre_6" cx="-2128.34" cy="-1570.01" r="8.29" gradientTransform="matrix(1, 0, 0, -1, 0, 1080)" xlink:href="#Degradado_sin_nombre_2"/><radialGradient id="Degradado_sin_nombre_7" cx="-2148.44" cy="-1585.84" r="3.95" gradientTransform="matrix(1, 0, 0, -1, 0, 1080)" xlink:href="#Degradado_sin_nombre_2"/><radialGradient id="Degradado_sin_nombre_8" cx="-2227.92" cy="-1621.03" r="6.62" gradientTransform="matrix(1, 0, 0, -1, 0, 1080)" xlink:href="#Degradado_sin_nombre_2"/><radialGradient id="Degradado_sin_nombre_9" cx="-2244.45" cy="-1538.78" r="12.07" gradientTransform="matrix(1, 0, 0, -1, 0, 1080)" xlink:href="#Degradado_sin_nombre_2"/><radialGradient id="Degradado_sin_nombre_10" cx="-2136.02" cy="-1509.52" r="5.96" gradientTransform="matrix(1, 0, 0, -1, 0, 1080)" xlink:href="#Degradado_sin_nombre_2"/><radialGradient id="Degradado_sin_nombre_11" cx="-2165.88" cy="-1446.23" r="6.27" gradientTransform="matrix(1, 0, 0, -1, 0, 1080)" xlink:href="#Degradado_sin_nombre_2"/><radialGradient id="Degradado_sin_nombre_12" cx="-2115.04" cy="-1393.8" r="4.17" gradientTransform="matrix(1, 0, 0, -1, 0, 1080)" xlink:href="#Degradado_sin_nombre_2"/><radialGradient id="Degradado_sin_nombre_13" cx="-2128.02" cy="-1364.75" r="8.33" gradientTransform="matrix(1, 0, 0, -1, 0, 1080)" xlink:href="#Degradado_sin_nombre_2"/><radialGradient id="Degradado_sin_nombre_14" cx="-2140.59" cy="-1327.48" r="5.81" gradientTransform="matrix(1, 0, 0, -1, 0, 1080)" xlink:href="#Degradado_sin_nombre_2"/><radialGradient id="Degradado_sin_nombre_15" cx="-2201.94" cy="-1477.45" r="5.81" gradientTransform="matrix(1, 0, 0, -1, 0, 1080)" xlink:href="#Degradado_sin_nombre_2"/><radialGradient id="Degradado_sin_nombre_16" cx="-2070.56" cy="-1379.42" r="4.79" gradientTransform="matrix(1, 0, 0, -1, 0, 1080)" xlink:href="#Degradado_sin_nombre_2"/><radialGradient id="Degradado_sin_nombre_17" cx="-2013.46" cy="-1356.16" r="6.82" gradientTransform="matrix(1, 0, 0, -1, 0, 1080)" xlink:href="#Degradado_sin_nombre_2"/><radialGradient id="Degradado_sin_nombre_18" cx="-1941.44" cy="-1316.28" r="5.35" gradientTransform="matrix(1, 0, 0, -1, 0, 1080)" xlink:href="#Degradado_sin_nombre_2"/><radialGradient id="Degradado_sin_nombre_19" cx="-1999.86" cy="-1384.27" r="8.38" gradientTransform="matrix(1, 0, 0, -1, 0, 1080)" xlink:href="#Degradado_sin_nombre_2"/><radialGradient id="Degradado_sin_nombre_20" cx="-1941.15" cy="-1439.71" r="10.58" gradientTransform="matrix(1, 0, 0, -1, 0, 1080)" xlink:href="#Degradado_sin_nombre_2"/><radialGradient id="Degradado_sin_nombre_21" cx="-2038.34" cy="-1519.99" r="10.58" gradientTransform="matrix(1, 0, 0, -1, 0, 1080)" xlink:href="#Degradado_sin_nombre_2"/><radialGradient id="Degradado_sin_nombre_22" cx="-2037.51" cy="-1505.38" r="6.49" gradientTransform="matrix(1, 0, 0, -1, 0, 1080)" xlink:href="#Degradado_sin_nombre_2"/><radialGradient id="Degradado_sin_nombre_23" cx="-1938.22" cy="-1564.67" r="12.33" gradientTransform="matrix(1, 0, 0, -1, 0, 1080)" xlink:href="#Degradado_sin_nombre_2"/><radialGradient id="Degradado_sin_nombre_24" cx="-2174.8" cy="-1120.8" r="12.33" gradientTransform="matrix(1, 0, 0, -1, 0, 1080)" xlink:href="#Degradado_sin_nombre_2"/><radialGradient id="Degradado_sin_nombre_25" cx="-2105.77" cy="-1635.29" r="12.33" gradientTransform="matrix(1, 0, 0, -1, 0, 1080)" xlink:href="#Degradado_sin_nombre_2"/><radialGradient id="Degradado_sin_nombre_26" cx="-2368.92" cy="-1232.96" r="5.28" gradientTransform="matrix(1, 0, 0, -1, 0, 1080)" xlink:href="#Degradado_sin_nombre_2"/><radialGradient id="Degradado_sin_nombre_27" cx="-2117.67" cy="-1228.85" r="4.51" gradientTransform="matrix(1, 0, 0, -1, 0, 1080)" xlink:href="#Degradado_sin_nombre_2"/><radialGradient id="Degradado_sin_nombre_28" cx="-2028.12" cy="-1702.17" r="7.34" gradientTransform="matrix(1, 0, 0, -1, 0, 1080)" xlink:href="#Degradado_sin_nombre_2"/><radialGradient id="Degradado_sin_nombre_29" cx="-2000.82" cy="-1740.07" r="6.69" gradientTransform="matrix(1, 0, 0, -1, 0, 1080)" xlink:href="#Degradado_sin_nombre_2"/><radialGradient id="Degradado_sin_nombre_30" cx="-2058.62" cy="-1733.65" r="11.64" gradientTransform="matrix(1, 0, 0, -1, 0, 1080)" xlink:href="#Degradado_sin_nombre_2"/><radialGradient id="Degradado_sin_nombre_31" cx="-2075.33" cy="-1741.07" r="6.54" gradientTransform="matrix(1, 0, 0, -1, 0, 1080)" xlink:href="#Degradado_sin_nombre_2"/><radialGradient id="Degradado_sin_nombre_32" cx="-2111.72" cy="-1727.63" r="5.01" gradientTransform="matrix(1, 0, 0, -1, 0, 1080)" xlink:href="#Degradado_sin_nombre_2"/><radialGradient id="Degradado_sin_nombre_33" cx="-2129.31" cy="-1722.43" r="6.02" gradientTransform="matrix(1, 0, 0, -1, 0, 1080)" xlink:href="#Degradado_sin_nombre_2"/><radialGradient id="Degradado_sin_nombre_34" cx="-2154.05" cy="-1740.64" r="12.88" gradientTransform="matrix(1, 0, 0, -1, 0, 1080)" xlink:href="#Degradado_sin_nombre_2"/><radialGradient id="Degradado_sin_nombre_35" cx="-2180.67" cy="-1703.7" r="4.25" gradientTransform="matrix(1, 0, 0, -1, 0, 1080)" xlink:href="#Degradado_sin_nombre_2"/><radialGradient id="Degradado_sin_nombre_36" cx="-2224.17" cy="-1764.32" r="6.37" gradientTransform="matrix(1, 0, 0, -1, 0, 1080)" xlink:href="#Degradado_sin_nombre_2"/><radialGradient id="Degradado_sin_nombre_37" cx="-2299.36" cy="-1813.75" r="7.96" gradientTransform="matrix(1, 0, 0, -1, 0, 1080)" xlink:href="#Degradado_sin_nombre_2"/><radialGradient id="Degradado_sin_nombre_38" cx="-2391.69" cy="-1764.6" r="9.27" gradientTransform="matrix(1, 0, 0, -1, 0, 1080)" xlink:href="#Degradado_sin_nombre_2"/><radialGradient id="Degradado_sin_nombre_39" cx="-2383.57" cy="-1601.1" r="10.21" gradientTransform="matrix(1, 0, 0, -1, 0, 1080)" xlink:href="#Degradado_sin_nombre_2"/><radialGradient id="Degradado_sin_nombre_40" cx="-2345.21" cy="-1739.88" r="9.05" gradientTransform="matrix(1, 0, 0, -1, 0, 1080)" xlink:href="#Degradado_sin_nombre_2"/><radialGradient id="Degradado_sin_nombre_41" cx="-2351.04" cy="-1639.32" r="10.18" gradientTransform="matrix(1, 0, 0, -1, 0, 1080)" xlink:href="#Degradado_sin_nombre_2"/><radialGradient id="Degradado_sin_nombre_42" cx="-2345.92" cy="-1541.19" r="5.95" gradientTransform="matrix(1, 0, 0, -1, 0, 1080)" xlink:href="#Degradado_sin_nombre_2"/><radialGradient id="Degradado_sin_nombre_43" cx="-2381.28" cy="-1458.33" r="10.53" gradientTransform="matrix(1, 0, 0, -1, 0, 1080)" xlink:href="#Degradado_sin_nombre_2"/><radialGradient id="Degradado_sin_nombre_44" cx="-2401.29" cy="-1404.37" r="10.5" gradientTransform="matrix(1, 0, 0, -1, 0, 1080)" xlink:href="#Degradado_sin_nombre_2"/><radialGradient id="Degradado_sin_nombre_45" cx="-2341.36" cy="-1349.89" r="10.53" gradientTransform="matrix(1, 0, 0, -1, 0, 1080)" xlink:href="#Degradado_sin_nombre_2"/><radialGradient id="Degradado_sin_nombre_46" cx="-2394.91" cy="-1307.18" r="6.89" gradientTransform="matrix(1, 0, 0, -1, 0, 1080)" xlink:href="#Degradado_sin_nombre_2"/><radialGradient id="Degradado_sin_nombre_47" cx="-2313.55" cy="-1254.4" r="10.69" gradientTransform="matrix(1, 0, 0, -1, 0, 1080)" xlink:href="#Degradado_sin_nombre_2"/><radialGradient id="Degradado_sin_nombre_48" cx="-2294.05" cy="-1316.41" r="10.69" gradientTransform="matrix(1, 0, 0, -1, 0, 1080)" xlink:href="#Degradado_sin_nombre_2"/><radialGradient id="Degradado_sin_nombre_49" cx="-2335.78" cy="-1190.97" r="4.8" gradientTransform="matrix(1, 0, 0, -1, 0, 1080)" xlink:href="#Degradado_sin_nombre_2"/><radialGradient id="Degradado_sin_nombre_50" cx="-2339.4" cy="-1123.25" r="12.85" gradientTransform="matrix(1, 0, 0, -1, 0, 1080)" xlink:href="#Degradado_sin_nombre_2"/><radialGradient id="Degradado_sin_nombre_51" cx="-2209.03" cy="-1501.5" r="12.85" gradientTransform="matrix(1, 0, 0, -1, 0, 1080)" xlink:href="#Degradado_sin_nombre_2"/><radialGradient id="Degradado_sin_nombre_52" cx="-2265.93" cy="-1130.16" r="7.68" gradientTransform="matrix(1, 0, 0, -1, 0, 1080)" xlink:href="#Degradado_sin_nombre_2"/><radialGradient id="Degradado_sin_nombre_53" cx="-2228.93" cy="-1335.02" r="7.68" gradientTransform="matrix(1, 0, 0, -1, 0, 1080)" xlink:href="#Degradado_sin_nombre_2"/><radialGradient id="Degradado_sin_nombre_54" cx="-2228.93" cy="-1099.37" r="5.53" gradientTransform="matrix(1, 0, 0, -1, 0, 1080)" xlink:href="#Degradado_sin_nombre_2"/><radialGradient id="Degradado_sin_nombre_55" cx="-2141.76" cy="-1185.31" r="11.04" gradientTransform="matrix(1, 0, 0, -1, 0, 1080)" xlink:href="#Degradado_sin_nombre_2"/><radialGradient id="Degradado_sin_nombre_56" cx="-2072.32" cy="-1137.67" r="13.13" gradientTransform="matrix(1, 0, 0, -1, 0, 1080)" xlink:href="#Degradado_sin_nombre_2"/><radialGradient id="Degradado_sin_nombre_57" cx="-2251.21" cy="-1415.49" r="13.13" gradientTransform="matrix(1, 0, 0, -1, 0, 1080)" xlink:href="#Degradado_sin_nombre_2"/><radialGradient id="Degradado_sin_nombre_58" cx="-2203.68" cy="-1347.65" r="13.13" gradientTransform="matrix(1, 0, 0, -1, 0, 1080)" xlink:href="#Degradado_sin_nombre_2"/><radialGradient id="Degradado_sin_nombre_59" cx="-2078.15" cy="-1084.99" r="4.3" gradientTransform="matrix(1, 0, 0, -1, 0, 1080)" xlink:href="#Degradado_sin_nombre_2"/><radialGradient id="Degradado_sin_nombre_60" cx="-2014.39" cy="-1163.74" r="4.77" gradientTransform="matrix(1, 0, 0, -1, 0, 1080)" xlink:href="#Degradado_sin_nombre_2"/><radialGradient id="Degradado_sin_nombre_61" cx="-1919.53" cy="-1094.63" r="6.01" gradientTransform="matrix(1, 0, 0, -1, 0, 1080)" xlink:href="#Degradado_sin_nombre_2"/><radialGradient id="Degradado_sin_nombre_62" cx="-1939.62" cy="-1246.6" r="5.27" gradientTransform="matrix(1, 0, 0, -1, 0, 1080)" xlink:href="#Degradado_sin_nombre_2"/><radialGradient id="Degradado_sin_nombre_63" cx="-2108.85" cy="-1101.16" r="3.9" gradientTransform="matrix(1, 0, 0, -1, 0, 1080)" xlink:href="#Degradado_sin_nombre_2"/><radialGradient id="Degradado_sin_nombre_64" cx="-2006.15" cy="-1819.1" r="6.5" gradientTransform="matrix(1, 0, 0, -1, 0, 1080)" xlink:href="#Degradado_sin_nombre_2"/><radialGradient id="Degradado_sin_nombre_65" cx="-2076.73" cy="-1755.87" r="9.93" gradientTransform="matrix(1, 0, 0, -1, 0, 1080)" xlink:href="#Degradado_sin_nombre_2"/><radialGradient id="Degradado_sin_nombre_66" cx="-2150.75" cy="-1760.58" r="5.51" gradientTransform="matrix(1, 0, 0, -1, 0, 1080)" xlink:href="#Degradado_sin_nombre_2"/><radialGradient id="Degradado_sin_nombre_67" cx="-2221.66" cy="-1813.65" r="8.04" gradientTransform="matrix(1, 0, 0, -1, 0, 1080)" xlink:href="#Degradado_sin_nombre_2"/><radialGradient id="Degradado_sin_nombre_68" cx="-2254.64" cy="-1724.52" r="5.12" gradientTransform="matrix(1, 0, 0, -1, 0, 1080)" xlink:href="#Degradado_sin_nombre_2"/><radialGradient id="Degradado_sin_nombre_69" cx="-2325.81" cy="-1815.8" r="12.26" gradientTransform="matrix(1, 0, 0, -1, 0, 1080)" xlink:href="#Degradado_sin_nombre_2"/><radialGradient id="Degradado_sin_nombre_70" cx="-2394.45" cy="-1677.14" r="9.53" gradientTransform="matrix(1, 0, 0, -1, 0, 1080)" xlink:href="#Degradado_sin_nombre_2"/></defs><g id="Capa_1-2" data-name="Capa 1"><rect class="cls-1" x="71.11" y="-3" width="1851.79" height="1084.33"/><path class="cls-2" d="M1074.14,546.22c-5,0-9.12,4.34-9.12,9.69s4.08,9.69,9.12,9.69,9.11-4.34,9.11-9.69S1079.17,546.22,1074.14,546.22Z"/><path class="cls-3" d="M923.46,487.84c-15.07-2.67-27.92,11-25.38,27,1.52,9.65,8.87,17.41,18,19,15,2.56,27.73-11,25.31-26.92C939.87,497.26,932.55,489.45,923.46,487.84Z"/><path class="cls-4" d="M1169.55,194.22c-15.07-2.67-27.92,11-25.39,27,1.53,9.65,8.88,17.41,18,19,15,2.56,27.73-11,25.3-26.92C1186,203.64,1178.64,195.83,1169.55,194.22Z"/><path class="cls-5" d="M838.89,538.83c-8.51,0-15.41,7.33-15.41,16.37s6.9,16.38,15.41,16.38,15.41-7.33,15.41-16.38S847.39,538.83,838.89,538.83Z"/><path class="cls-6" d="M921.41,446.75c-9.35,0-16.93,8.06-16.93,18s7.58,18,16.93,18,16.93-8.06,16.93-18S930.76,446.75,921.41,446.75Z"/><path class="cls-7" d="M889.09,499.76a8.59,8.59,0,1,0,8.06,9.08,4.35,4.35,0,0,0,0-.51A8.34,8.34,0,0,0,889.09,499.76Z"/><path class="cls-8" d="M817.26,666.35c-7.46,0-13.5,6.42-13.5,14.35s6,14.35,13.5,14.35,13.51-6.43,13.51-14.35S824.72,666.35,817.26,666.35Z"/><path class="cls-9" d="M985.17,690.38c-13.61,0-24.64,11.73-24.64,26.17s11,26.18,24.64,26.18,24.62-11.72,24.62-26.18S998.76,690.38,985.17,690.38Z"/><path class="cls-10" d="M1044.88,468.48c-6.71,0-12.15,5.79-12.15,12.93s5.44,12.91,12.15,12.91,12.17-5.78,12.17-12.91S1051.61,468.48,1044.88,468.48Z"/><path class="cls-11" d="M1174.07,532.56c-7.07,0-12.79,6.1-12.79,13.61s5.72,13.59,12.79,13.59,12.81-6.08,12.81-13.59S1181.14,532.56,1174.07,532.56Z"/><path class="cls-12" d="M1281.1,426.86a9.07,9.07,0,1,0,8.5,9.6c0-.2,0-.4,0-.6A8.79,8.79,0,0,0,1281.1,426.86Z"/><path class="cls-13" d="M1340.38,446c-9.39,0-17,8.1-17,18.08s7.62,18.07,17,18.07,17-8.08,17-18.07S1349.77,446,1340.38,446Z"/><path class="cls-14" d="M1416.45,478.72c-6.54,0-11.84,5.64-11.84,12.59s5.3,12.59,11.84,12.59,11.85-5.64,11.85-12.59S1423,478.72,1416.45,478.72Z"/><path class="cls-15" d="M1119,615.14c-12.72-10.32-27.08,5.05-17.3,18.5C1114.43,643.79,1128.65,628.56,1119,615.14Z"/><path class="cls-16" d="M1310.43,329.05c-5.4,0-9.77,4.64-9.77,10.38s4.37,10.39,9.77,10.39,9.78-4.64,9.78-10.39S1315.84,329.05,1310.43,329.05Z"/><path class="cls-17" d="M1357.9,200.82c-7.67,0-13.9,6.62-13.9,14.78s6.23,14.78,13.9,14.78,13.92-6.61,13.92-14.78S1365.59,200.82,1357.9,200.82Z"/><path class="cls-18" d="M1439.33,47.82c-6,0-10.92,5.2-10.92,11.61S1433.29,71,1439.33,71s10.92-5.21,10.92-11.61S1445.37,47.82,1439.33,47.82Z"/><path class="cls-19" d="M1300.53,168c-9.44,0-17.09,8.14-17.09,18.17s7.65,18.17,17.09,18.17,17.1-8.14,17.1-18.17S1310,168,1300.53,168Z"/><path class="cls-20" d="M1187.39,35.84c-11.93,0-21.6,10.29-21.6,23s9.67,22.94,21.6,22.94S1209,71.46,1209,58.8,1199.32,35.84,1187.39,35.84Z"/><path class="cls-21" d="M1023.52,246.61c-11.94,0-21.61,10.29-21.61,22.95s9.67,22.95,21.61,22.95,21.59-10.28,21.59-22.95S1035.44,246.61,1023.52,246.61Z"/><path class="cls-22" d="M1053.33,253.68c-7.32,0-13.26,6.3-13.26,14.08s5.94,14.08,13.26,14.08,13.25-6.3,13.25-14.08S1060.65,253.68,1053.33,253.68Z"/><path class="cls-23" d="M932.32,25.7c-13.91,0-25.18,12-25.18,26.76S918.41,79.2,932.32,79.2s25.17-12,25.17-26.74S946.22,25.7,932.32,25.7Z"/><path class="cls-24" d="M1838.35,538.75c-13.91,0-25.18,12-25.18,26.76s11.27,26.74,25.18,26.74,25.17-12,25.17-26.74S1852.26,538.75,1838.35,538.75Z"/><path class="cls-25" d="M788.15,389.05c-13.9,0-25.17,12-25.17,26.76s11.27,26.74,25.17,26.74,25.18-12,25.18-26.74S802.06,389.05,788.15,389.05Z"/><path class="cls-26" d="M1609.4,975.05c-6,0-10.78,5.12-10.78,11.45s4.82,11.44,10.78,11.44,10.77-5.12,10.77-11.44S1615.35,975.05,1609.4,975.05Z"/><path class="cls-27" d="M1617.8,431.83a9.8,9.8,0,0,0,0,19.57c5.08,0,9.2-4.37,9.2-9.79A9.49,9.49,0,0,0,1617.8,431.83Z"/><path class="cls-28" d="M651.66,231.48c-8.28,0-15,7.13-15,15.92s6.71,15.91,15,15.91,15-7.12,15-15.91S659.93,231.48,651.66,231.48Z"/><path class="cls-29" d="M574.29,173.68c-7.54,0-13.66,6.5-13.66,14.51s6.12,14.52,13.66,14.52S588,196.21,588,188.19,581.84,173.68,574.29,173.68Z"/><path class="cls-30" d="M587.4,288.32c-13.12,0-23.76,11.3-23.76,25.23s10.64,25.24,23.76,25.24,23.76-11.29,23.76-25.24S600.52,288.32,587.4,288.32Z"/><path class="cls-31" d="M572.24,335.59c-7.37,0-13.35,6.36-13.35,14.19s6,14.19,13.35,14.19,13.36-6.35,13.36-14.19S579.62,335.59,572.24,335.59Z"/><path class="cls-32" d="M599.68,417.85c-5.66,0-10.23,4.86-10.23,10.86s4.57,10.86,10.23,10.86,10.23-4.86,10.23-10.86S605.33,417.85,599.68,417.85Z"/><path class="cls-33" d="M610.28,453.8c-6.78,0-12.27,5.84-12.27,13s5.49,13.06,12.27,13.06,12.29-5.84,12.29-13.06S617.06,453.8,610.28,453.8Z"/><path class="cls-34" d="M573.13,492.57c-14.53,0-26.29,12.51-26.29,27.93s11.76,27.92,26.29,27.92,26.29-12.49,26.29-27.92S587.64,492.57,573.13,492.57Z"/><path class="cls-35" d="M648.52,569a9.23,9.23,0,1,0,8.65,9.77c0-.18,0-.37,0-.55A9,9,0,0,0,648.52,569Z"/><path class="cls-36" d="M524.79,658.75c-7.19,0-13,6.2-13,13.82s5.81,13.81,13,13.81,13-6.18,13-13.81S532,658.75,524.79,658.75Z"/><path class="cls-37" d="M423.89,818.37c-9,0-16.26,7.73-16.26,17.27s7.28,17.26,16.26,17.26,16.25-7.73,16.25-17.26S432.87,818.37,423.89,818.37Z"/><path class="cls-38" d="M524.22,1015.76c-10.46,0-18.94,9-18.94,20.11s8.48,20.1,18.94,20.1,18.91-9,18.91-20.1S534.66,1015.76,524.22,1015.76Z"/><path class="cls-39" d="M858,996.12c-11.51,0-20.84,9.92-20.84,22.14s9.33,22.15,20.84,22.15,20.83-9.92,20.83-22.15S869.45,996.12,858,996.12Z"/><path class="cls-40" d="M574.67,915.44c-10.2,0-18.46,8.79-18.46,19.63s8.26,19.61,18.46,19.61,18.48-8.78,18.48-19.61S584.87,915.44,574.67,915.44Z"/><path class="cls-41" d="M779.93,925.64c-11.48,0-20.79,9.88-20.79,22.09s9.31,22.07,20.79,22.07,20.78-9.88,20.78-22.07S791.41,925.64,779.93,925.64Z"/><path class="cls-42" d="M980.22,923.71c-6.7,0-12.14,5.78-12.14,12.91s5.44,12.91,12.14,12.91,12.15-5.79,12.15-12.91S986.93,923.71,980.22,923.71Z"/><path class="cls-43" d="M1149.37,990.44c-11.88,0-21.5,10.23-21.5,22.84s9.62,22.85,21.5,22.85,21.5-10.23,21.5-22.85S1161.24,990.44,1149.37,990.44Z"/><path class="cls-44" d="M1259.51,1033.91c-11.84,0-21.43,10.19-21.43,22.77s9.59,22.77,21.43,22.77,21.44-10.2,21.44-22.77S1271.35,1033.91,1259.51,1033.91Z"/><path class="cls-45" d="M1370.72,903.89c-11.86,0-21.48,10.23-21.48,22.83s9.62,22.84,21.48,22.84,21.49-10.23,21.49-22.84S1382.6,903.89,1370.72,903.89Z"/><path class="cls-46" d="M1457.91,1027.91c-7.77,0-14.06,6.68-14.06,14.94s6.29,14.93,14.06,14.93,14-6.69,14-14.93S1465.66,1027.91,1457.91,1027.91Z"/><ellipse class="cls-47" cx="1565.64" cy="866.42" rx="21.81" ry="23.17"/><ellipse class="cls-48" cx="1439.07" cy="824.12" rx="21.81" ry="23.17"/><path class="cls-49" d="M1695.11,904.2c-5.42,0-9.8,4.67-9.8,10.41s4.38,10.42,9.8,10.42,9.81-4.67,9.81-10.42S1700.52,904.2,1695.11,904.2Z"/><path class="cls-50" d="M1833.34,894.6c-14.49,0-26.24,12.49-26.24,27.88s11.75,27.87,26.24,27.87,26.23-12.47,26.23-27.87S1847.83,894.6,1833.34,894.6Z"/><path class="cls-51" d="M1061.25,611.85c-14.49,0-26.24,12.49-26.24,27.89s11.75,27.86,26.24,27.86,26.23-12.47,26.23-27.86S1075.74,611.85,1061.25,611.85Z"/><path class="cls-52" d="M1819.24,746.48c-8.67,0-15.68,7.46-15.68,16.67s7,16.65,15.68,16.65,15.67-7.46,15.67-16.65S1827.89,746.48,1819.24,746.48Z"/><path class="cls-53" d="M1401.07,666.24c-8.66,0-15.67,7.46-15.67,16.67s7,16.65,15.67,16.65,15.68-7.46,15.68-16.65S1409.73,666.24,1401.07,666.24Z"/><path class="cls-54" d="M1882.08,670.9c-6.24,0-11.3,5.37-11.3,12s5.06,12,11.3,12,11.3-5.37,11.3-12S1888.31,670.9,1882.08,670.9Z"/><ellipse class="cls-55" cx="1706.65" cy="493.85" rx="22.53" ry="23.93"/><ellipse class="cls-56" cx="1803.9" cy="343.25" rx="26.8" ry="28.48"/><ellipse class="cls-57" cx="1236.81" cy="731.22" rx="26.8" ry="28.48"/><ellipse class="cls-58" cx="1375.29" cy="628.13" rx="26.8" ry="28.48"/><path class="cls-59" d="M1911.44,346.58a9.35,9.35,0,1,0,8.77,9.89c0-.18,0-.37,0-.55A9.06,9.06,0,0,0,1911.44,346.58Z"/><path class="cls-60" d="M1750.69,207.28c-5.38,0-9.74,4.65-9.74,10.35s4.36,10.37,9.74,10.37,9.74-4.65,9.74-10.37S1756.07,207.28,1750.69,207.28Z"/><path class="cls-61" d="M1891.77-1.12c-6.78,0-12.27,5.82-12.27,13s5.49,13,12.27,13S1904,19.1,1904,11.9,1898.54-1.12,1891.77-1.12Z"/><path class="cls-62" d="M1581.56,44c-6,0-10.77,5.13-10.77,11.44s4.82,11.43,10.77,11.43,10.76-5.1,10.76-11.43S1587.5,44,1581.56,44Z"/><ellipse class="cls-63" cx="1878.42" cy="422.49" rx="7.95" ry="8.45"/><ellipse class="cls-64" cx="412.97" cy="199.76" rx="13.28" ry="14.1"/><path class="cls-65" d="M542,331.29c-11.2,0-20.27,9.66-20.27,21.54s9.07,21.53,20.27,21.53,20.27-9.63,20.27-21.53S553.23,331.29,542,331.29Z"/><path class="cls-66" d="M532.42,501.38c-6.22,0-11.26,5.36-11.26,12s5,12,11.26,12,11.25-5.35,11.25-12S538.62,501.38,532.42,501.38Z"/><path class="cls-67" d="M424.08,649.69c-9.06,0-16.42,7.82-16.42,17.45s7.36,17.43,16.42,17.43,16.42-7.8,16.42-17.43S433.15,649.69,424.08,649.69Z"/><path class="cls-68" d="M606,727.56c-5.77,0-10.45,5-10.45,11.1s4.68,11.1,10.45,11.1,10.44-5,10.44-11.1S611.81,727.56,606,727.56Z"/><path class="cls-69" d="M419.7,866.39c-13.82,0-25,11.91-25,26.61s11.2,26.58,25,26.58,25-11.91,25-26.58S433.52,866.39,419.7,866.39Z"/><path class="cls-70" d="M702.73,1021.19c-10.75,0-19.46,9.25-19.46,20.66s8.71,20.68,19.46,20.68,19.46-9.25,19.46-20.68S713.48,1021.19,702.73,1021.19Z"/><path class="cls-71" d="M2225,61.41c-222.5,36.88-429.68,110.45-632.11,215.25-16.23,8.4-42.34,18.76-60.37,19.8s-37.89-7.78-44.62-25.57c-10.24-27,13.31-54.17,34.53-72.67L1609,122.78c9.48-8.27,19.72-18,20.5-31,.89-14.8-11.74-27.41-25.33-30.78s-27.75.2-41.26,3.92C1294,138.82,929,330.66,697.28,567.52L676.9,676.62c198.58-206.24,439.39-366.36,700.78-466,13.14-5,26.94-9.93,40.76-7.88s27.48,13.38,27.86,28.2c.34,13-9,23.75-17.76,32.9l-79.72,83.49c-19.55,20.48-40.69,49.76-28.17,75.71,8.23,17.07,28.77,23.94,46.63,21.16s33.74-13.13,49.18-23.07c0,0,591.72-316.33,808.54-359.74"/><path class="cls-71" d="M2048.42,433.68c-46.11-21-108.3-13.09-156.68-7.07-74.24,9.24-146.61,30.6-218.08,53.14-107.68,34-211.91,80-311.54,135l-2.72,1.5a1718.6,1718.6,0,0,0-345.16,252.19A643.44,643.44,0,0,0,908.46,998.61h0c213.18-223.3,517.16-400.37,850.67-495.53,25.74-7.35,52.28-14.31,78.65-14.5s52.92,7.58,64.76,24.31c13.46,19,8.54,48.25-13.2,65.14-21,16.31-44.07,35-69.21,49.92C1694,703,1575.57,786,1466.94,875.71c-49.09,40.52-96.62,82.86-131.51,130.44s-56.6,101.2-50.24,151.82"/><path class="cls-71" d="M1707.81,1252c-195.63-65-166.69-262.93-32.79-399.42,80.87-82.44,307.93-220.52,381.44-288"/><path class="cls-71" d="M579.42,1162.35c-13.26-12.47-94.73-71.73-94.89-80.06-.07-3.82,372.2-268,748.2-432.66-158,96.71-369.33,242.23-608.74,554.62"/><path class="cls-72" d="M1342.5,895.61c-5.06-3-21.4,18.42-36.49,47.72s-23.21,55.44-18.15,58.38l39.66,32.85,40.83-52.9,21.41-71.95Z"/><path class="cls-73" d="M1283.21,1141.68c0-201.78,154-365.35,343.88-365.35S1971,939.9,1971,1141.68Z"/><ellipse class="cls-74" cx="1645.43" cy="1027.99" rx="47.25" ry="105.47" transform="translate(431.17 2541.19) rotate(-83.25)"/><ellipse class="cls-72" cx="1644.31" cy="1038.5" rx="36.66" ry="102.8" transform="translate(421.85 2551.06) rotate(-83.33)"/><path class="cls-74" d="M1641.35,825.05c1.11,14.6-24.37,28.7-56.92,31.48s-59.81-6.8-60.92-21.4,24.38-28.69,56.92-31.48S1640.25,810.45,1641.35,825.05Z"/><path class="cls-72" d="M1581.33,815.51c-28,2.39-50.78,13.16-55.88,25.42,6.88,11.23,31,18,59,15.6s50.78-13.16,55.89-25.42C1633.43,819.87,1609.33,813.11,1581.33,815.51Z"/><path class="cls-74" d="M1888.47,1013.45c-7,16.7-42.84,16-80.06-1.61s-61.74-45.39-54.74-62.09,42.83-16,80.06,1.61S1895.46,996.74,1888.47,1013.45Z"/><path class="cls-72" d="M1828.05,964.92c-32-15.14-63-17.78-75.52-7.58,1.23,16.67,23.85,39.37,55.88,54.5s63,17.78,75.52,7.58C1882.69,1002.74,1860.08,980.05,1828.05,964.92Z"/><ellipse class="cls-74" cx="1391.47" cy="965.22" rx="73.45" ry="30.51" transform="translate(-206.8 1524.99) rotate(-54.05)"/><ellipse class="cls-72" cx="1396.7" cy="969.62" rx="71.59" ry="23.68" transform="translate(-211.03 1522.92) rotate(-53.76)"/><path class="cls-74" d="M1695.54,924.48c-2,12.37-19.16,19.6-38.41,16.15s-33.26-16.27-31.29-28.64,19.16-19.6,38.4-16.16S1697.5,912.11,1695.54,924.48Z"/><path class="cls-72" d="M1662.65,905.88c-16.56-3-31.6,2-36.73,11.29,2,10.59,14.65,20.49,31.21,23.46s31.61-2,36.73-11.29C1691.9,918.75,1679.21,908.84,1662.65,905.88Z"/><path class="cls-74" d="M1686.71,863.7c-.73,4.63-7.16,7.33-14.35,6s-12.44-6.08-11.7-10.7,7.16-7.33,14.35-6S1687.44,859.08,1686.71,863.7Z"/><path class="cls-72" d="M1674.42,856.75c-6.19-1.11-11.82.74-13.73,4.22.73,4,5.48,7.66,11.67,8.77s11.81-.74,13.72-4.22C1685.35,861.56,1680.61,857.86,1674.42,856.75Z"/><path class="cls-74" d="M1752.58,903.54c-.73,4.63-7.16,7.33-14.35,6s-12.43-6.08-11.7-10.7,7.16-7.33,14.35-6S1753.32,898.92,1752.58,903.54Z"/><path class="cls-72" d="M1740.29,896.59c-6.19-1.11-11.81.74-13.73,4.22.74,4,5.48,7.66,11.67,8.77s11.81-.74,13.73-4.22C1751.22,901.4,1746.48,897.7,1740.29,896.59Z"/><path class="cls-74" d="M1552.87,965c2.21,4.06-1.13,10.5-7.44,14.37S1532.2,983.1,1530,979s1.12-10.49,7.44-14.37S1550.66,961,1552.87,965Z"/><path class="cls-72" d="M1539.22,968c-5.43,3.33-8.66,8.56-8,12.55,2.94,2.55,8.81,2.19,14.25-1.15s8.66-8.56,8-12.54C1550.53,964.28,1544.66,964.64,1539.22,968Z"/><path class="cls-74" d="M1710.35,807.09c-.72,4.56-9.92,6.71-20.54,4.81s-18.63-7.14-17.91-11.7,9.92-6.71,20.53-4.81S1711.07,802.53,1710.35,807.09Z"/><path class="cls-72" d="M1691.85,799.09c-9.14-1.63-17.22-.27-19.76,3,1.38,4,8.59,8.12,17.72,9.76s17.22.27,19.76-3C1708.2,804.83,1701,800.73,1691.85,799.09Z"/><path class="cls-74" d="M1551.1,913.92c1.7,9.92-9.44,20.38-24.88,23.36s-29.33-2.65-31-12.57,9.44-20.38,24.88-23.36S1549.4,904,1551.1,913.92Z"/><path class="cls-72" d="M1521.45,909.4c-13.28,2.57-23.39,10.67-24.87,19.2,4.21,7.44,16.35,11.24,29.64,8.68s23.38-10.66,24.86-19.2C1546.87,910.65,1534.74,906.84,1521.45,909.4Z"/><ellipse class="cls-74" cx="1471.31" cy="1010.89" rx="36.02" ry="22.2" transform="translate(-311.06 1109.98) rotate(-37.67)"/><ellipse class="cls-72" cx="1477.1" cy="1010.15" rx="35.16" ry="17.26" transform="translate(-310.67 1088.3) rotate(-36.87)"/><polygon class="cls-75" points="1842.96 814.55 1833.64 854.45 1779.77 838.27 1739.56 805.37 1762.96 771.38 1842.96 814.55"/><path class="cls-76" d="M1843,814.55c-2.06,4.32-21.64-1.85-43.73-13.78s-38.33-25.08-36.27-29.39,21.64,1.86,43.73,13.78S1845,810.24,1843,814.55Z"/><path class="cls-77" d="M1805,788.66c-19-10.26-36.16-16.26-41.89-15,2.41,5.66,17.09,16.84,36.1,27.09s36.15,16.26,41.88,15C1838.7,810.09,1824,798.92,1805,788.66Z"/><polygon class="cls-75" points="1665.41 749.62 1671.06 789.21 1631.03 799.04 1595.02 787.91 1600.33 747.24 1665.41 749.62"/><path class="cls-76" d="M1665.41,749.62c-.08,4.75-14.72,8.07-32.69,7.42s-32.47-5-32.39-9.8,14.71-8.07,32.68-7.41S1665.49,744.87,1665.41,749.62Z"/><path class="cls-77" d="M1633,743.69c-15.47-.57-28.46,1.81-31.84,5.51,3.25,3.95,16.15,7.27,31.61,7.84s28.46-1.82,31.83-5.52C1661.31,747.58,1648.41,744.25,1633,743.69Z"/><ellipse class="cls-74" cx="1760.15" cy="858.22" rx="20.73" ry="57.57" transform="translate(316.32 2181.11) rotate(-68.49)"/><path class="cls-72" d="M1763.8,847.31c-25.51-9.88-49.09-11.64-57.55-5,2.47,10.84,21.59,25.61,47.1,35.49s49.09,11.65,57.54,5C1808.42,872,1789.3,857.19,1763.8,847.31Z"/><ellipse class="cls-78" cx="1587.17" cy="865.57" rx="125.54" ry="35.23" transform="translate(-82.02 171.23) rotate(-6.02)"/><path class="cls-79" d="M1413.15,318.41a173.4,173.4,0,0,0,13.53,26.88,119.29,119.29,0,0,0,8.58,12.11,70.67,70.67,0,0,0,10.1,10.36,38.57,38.57,0,0,0,11.9,6.94,53.74,53.74,0,0,0,13.62,2.13,52,52,0,0,0,13.75-1.09,36.18,36.18,0,0,0,12.42-5.29c1-.59,1.82-1.35,2.73-2a20.92,20.92,0,0,0,2.35-2.26,17.18,17.18,0,0,0,3.36-5.25,6.82,6.82,0,0,0,.26-4.87,6.25,6.25,0,0,0-1.23-2c-.29-.32-.66-.61-1-.93s-.7-.45-1-.7a6.28,6.28,0,0,0-4.65-.6,12.74,12.74,0,0,0-5,2.63,19.74,19.74,0,0,0-4.17,4.67,14.9,14.9,0,0,0-2.2,5.47,44.46,44.46,0,0,0,.51,14,52.1,52.1,0,0,0,4.37,13.44,38.51,38.51,0,0,0,3.51,5.81,59,59,0,0,0,4.61,5.26c3.38,3.5,7.1,7,10.57,11.12a49,49,0,0,1,4.89,6.82,28.81,28.81,0,0,1,3.39,8.61,23.07,23.07,0,0,1-.18,9.89,20.73,20.73,0,0,1-.68,2.33,14.06,14.06,0,0,1-.92,2.24l-1.13,2.21c-.44.69-.94,1.34-1.42,2-.25.32-.48.66-.74,1l-.84.85a21.81,21.81,0,0,1-1.7,1.63,27.23,27.23,0,0,1-3.64,2.58,44.78,44.78,0,0,1-7.39,3.54c-4.82,1.86-9.54,3.17-13.57,5a27.76,27.76,0,0,0-5.38,3.06,26.29,26.29,0,0,0-2.09,2,24.69,24.69,0,0,0-2,2.46,31.51,31.51,0,0,0-5.25,11.83,40.51,40.51,0,0,0-.68,13.49,59.29,59.29,0,0,0,1.12,7c.27,1.15.42,2.32.8,3.45l1,3.39a32.48,32.48,0,0,0,1.19,3.35c.44,1.1.81,2.23,1.3,3.31,1,2.15,1.92,4.36,3.13,6.43l1.72,3.14,1.9,3,.94,1.53,1,1.47,2.06,2.94a139,139,0,0,0,19.52,21.11,157.05,157.05,0,0,0,23.1,16.84,149,149,0,0,0,25.55,12.06,7.16,7.16,0,0,1,4.16,9,6.55,6.55,0,0,1-8.1,4.53l-.32-.1-.13,0a162.05,162.05,0,0,1-27.48-13.65,171,171,0,0,1-24.64-18.71,152.38,152.38,0,0,1-20.88-23.5l-2.23-3.32-1.11-1.66-1-1.73-2.06-3.47-1.89-3.6c-1.31-2.36-2.31-4.93-3.44-7.41-.54-1.26-1-2.58-1.44-3.87s-1-2.57-1.32-3.93l-1.12-4c-.4-1.33-.58-2.73-.87-4.1a68.7,68.7,0,0,1-1.17-8.33,52.32,52.32,0,0,1,1.22-17.28,42.85,42.85,0,0,1,7.43-15.84,35,35,0,0,1,6.24-6.4,37.05,37.05,0,0,1,7.5-4.14c5-2.1,9.75-3.29,14.09-4.88a36.61,36.61,0,0,0,6-2.68A20.31,20.31,0,0,0,1505,444a13,13,0,0,0,1-1l.51-.47c.15-.17.26-.36.4-.54l.81-1.06c.2-.4.4-.79.62-1.19a7.34,7.34,0,0,0,.57-1.28,13.39,13.39,0,0,0,.43-1.36,12.83,12.83,0,0,0,.21-5.48c-.68-3.72-3-7.6-6-11.22s-6.46-7.11-10-10.89a67,67,0,0,1-5.21-6.2,47.85,47.85,0,0,1-4.24-7.3,61.36,61.36,0,0,1-4.85-15.87,52.76,52.76,0,0,1-.25-16.87,23.11,23.11,0,0,1,3.57-8.64,27.23,27.23,0,0,1,5.94-6.41,19.7,19.7,0,0,1,8-3.88,13.11,13.11,0,0,1,9.48,1.55c.67.46,1.37.93,2,1.43a12.56,12.56,0,0,1,1.71,1.71,13.71,13.71,0,0,1,3.23,7.18,15,15,0,0,1,0,2.68,16.65,16.65,0,0,1-1.16,4.87,24.49,24.49,0,0,1-4.88,7.43,30.13,30.13,0,0,1-3.11,2.87c-1.09.79-2.14,1.66-3.29,2.34a42.36,42.36,0,0,1-14.62,5.91,58.16,58.16,0,0,1-15.3.91c-2.53-.14-5-.48-7.52-.85-1.24-.22-2.45-.39-3.77-.75-.65-.16-1.31-.29-1.94-.49l-1.89-.65a44,44,0,0,1-13.43-8.15A76.86,76.86,0,0,1,1431.33,361a125.41,125.41,0,0,1-8.73-12.83,178.33,178.33,0,0,1-13.45-28,2.32,2.32,0,0,1,1.18-2.95,2.1,2.1,0,0,1,2.74,1.18l0,0Z"/><polygon class="cls-80" points="1413.15 318.41 1414.16 320.93 1410.2 322.74 1409.18 320.06 1413.15 318.41"/><polygon class="cls-80" points="1416.37 325.96 1418.72 330.93 1414.7 333.12 1412.38 327.97 1416.37 325.96"/><polygon class="cls-80" points="1421.23 335.81 1423.88 340.6 1419.82 343.17 1417.18 338.19 1421.23 335.81"/><polygon class="cls-80" points="1426.67 345.28 1429.63 349.83 1425.61 352.85 1422.62 348.06 1426.67 345.28"/><polygon class="cls-80" points="1432.76 354.23 1436.09 358.43 1432.21 362.01 1428.8 357.51 1432.76 354.23"/><polygon class="cls-80" points="1439.62 362.4 1443.38 366.07 1439.88 370.36 1435.89 366.31 1439.62 362.4"/><polygon class="cls-80" points="1447.37 369.36 1451.62 372.14 1448.94 377.3 1444.21 374.06 1447.37 369.36"/><path class="cls-80" d="M1456.09,374.3a28,28,0,0,0,4.66,1.38l-1.14,6a33.58,33.58,0,0,1-5.53-1.77Z"/><polygon class="cls-80" points="1465.77 376.43 1470.87 376.84 1470.56 383.16 1465.08 382.6 1465.77 376.43"/><polygon class="cls-80" points="1475.93 376.86 1480.94 376.42 1481.68 382.92 1476.1 383.29 1475.93 376.86"/><path class="cls-80" d="M1485.83,375.46a36.88,36.88,0,0,0,4.7-1.54l2.18,6.36a43.62,43.62,0,0,1-5.47,1.66Z"/><path class="cls-80" d="M1495,371.78a34.07,34.07,0,0,0,4.09-2.76l3.85,5.66a41.71,41.71,0,0,1-4.92,3.18Z"/><path class="cls-80" d="M1502.52,365.73a17.8,17.8,0,0,0,2.55-3.82l6,3.35a25.15,25.15,0,0,1-3.66,5.3Z"/><path class="cls-80" d="M1506.11,358.07a5.47,5.47,0,0,0-.89-3.14l5.83-4.1a13.29,13.29,0,0,1,1.93,7.53Z"/><path class="cls-80" d="M1502.53,352.38a6.11,6.11,0,0,0-3.29-.8l-.16-7.63a12.72,12.72,0,0,1,6.9,1.86Z"/><path class="cls-80" d="M1495.55,352.62a15.56,15.56,0,0,0-3.58,2.5l-4.77-6a23,23,0,0,1,5.33-3.56Z"/><path class="cls-80" d="M1489,358.6a17,17,0,0,0-2,4l-7.1-2.87a25.4,25.4,0,0,1,3.11-5.84Z"/><path class="cls-80" d="M1486.19,367a39.45,39.45,0,0,0,0,5.1l-7.8.4a52.91,52.91,0,0,1,.14-6.17Z"/><polygon class="cls-80" points="1486.72 377.24 1487.79 382.32 1480.05 384.49 1478.92 378.55 1486.72 377.24"/><polygon class="cls-80" points="1489.32 387.27 1491.32 391.97 1483.99 395.92 1481.73 390.3 1489.32 387.27"/><path class="cls-80" d="M1493.78,396.3a21.52,21.52,0,0,0,1.46,1.95l1.54,1.92-6.21,6-1.86-2.4a27.73,27.73,0,0,1-1.78-2.51Z"/><polygon class="cls-80" points="1500.37 403.99 1504.2 407.87 1498.18 414.43 1494.4 410.45 1500.37 403.99"/><polygon class="cls-80" points="1508.09 411.97 1511.88 416.48 1504.97 422.32 1501.76 418.34 1508.09 411.97"/><path class="cls-80" d="M1515.3,421.67a28.93,28.93,0,0,1,2.58,6.19l-8.68,2.66a18.47,18.47,0,0,0-1.64-4.11Z"/><path class="cls-80" d="M1518.75,435a23.88,23.88,0,0,1-1.36,7l-8.63-3.51a13.37,13.37,0,0,0,.86-4Z"/><path class="cls-80" d="M1514,448.29a23.79,23.79,0,0,1-4.94,4.72l-5.24-8.35a13.62,13.62,0,0,0,3-2.72Z"/><polygon class="cls-80" points="1503.7 456.14 1498.36 458.34 1495.29 448.62 1499.88 446.84 1503.7 456.14"/><polygon class="cls-80" points="1493.22 460.14 1488.37 461.88 1485.08 452.01 1490.32 450.25 1493.22 460.14"/><path class="cls-80" d="M1484,463.84a21,21,0,0,0-3.65,2.38l-6.11-8.49a30.71,30.71,0,0,1,5.44-3.42Z"/><path class="cls-80" d="M1477.3,469.42a28.69,28.69,0,0,0-2.59,3.87l-8.76-5.7a39.54,39.54,0,0,1,3.66-5.23Z"/><path class="cls-80" d="M1472.71,477.57a35.06,35.06,0,0,0-1.37,4.59l-10.15-2.71a43.5,43.5,0,0,1,2-6.1Z"/><path class="cls-80" d="M1470.58,487a40.55,40.55,0,0,0-.18,4.93l-10.68.14a55.82,55.82,0,0,1,.35-6.33Z"/><polygon class="cls-80" points="1470.77 496.94 1471.59 502.01 1460.93 504.32 1460.07 498.26 1470.77 496.94"/><polygon class="cls-80" points="1472.81 507.01 1474.4 511.92 1464.02 516.05 1462.26 510.26 1472.81 507.01"/><polygon class="cls-80" points="1476.33 516.73 1478.57 521.41 1468.62 527.07 1466.15 521.65 1476.33 516.73"/><polygon class="cls-80" points="1481.09 525.97 1483.86 530.4 1474.39 537.32 1471.38 532.29 1481.09 525.97"/><polygon class="cls-80" points="1486.85 534.68 1490.04 538.83 1481.07 546.81 1477.63 542.16 1486.85 534.68"/><polygon class="cls-80" points="1493.41 542.84 1496.94 546.71 1488.47 555.6 1484.69 551.29 1493.41 542.84"/><polygon class="cls-80" points="1500.62 550.44 1504.42 554.04 1496.44 563.72 1492.39 559.74 1500.62 550.44"/><polygon class="cls-80" points="1508.35 557.5 1512.38 560.83 1504.9 571.22 1500.61 567.55 1508.35 557.5"/><path class="cls-80" d="M1516.52,564c1.4,1,2.8,2,4.23,3l-6.94,11.07c-1.53-1.09-3-2.23-4.51-3.37Z"/><polygon class="cls-80" points="1525.06 569.92 1529.46 572.63 1523.14 584.37 1518.42 581.33 1525.06 569.92"/><polygon class="cls-80" points="1533.95 575.2 1538.51 577.6 1532.85 589.95 1527.95 587.25 1533.95 575.2"/><polygon class="cls-80" points="1543.15 579.83 1547.85 581.9 1542.9 594.83 1537.84 592.48 1543.15 579.83"/><polygon class="cls-80" points="1552.64 583.82 1555.05 584.71 1550.66 598.04 1548.07 597.02 1552.64 583.82"/><path class="cls-81" d="M1369.31,324.07l4.91,6.89,4.91,6.89s-2.56,12.06-9.65,17.76L1360,342.36l-9.44-13.25C1357.69,323.41,1369.31,324.07,1369.31,324.07Z"/><path class="cls-82" d="M1408.71,277.57l-29.63,33.24c-12.7-9.76-30.69-7.85-42.59-5-3.32.8-5.53-3.6-3-6C1374.23,260.39,1408.71,277.57,1408.71,277.57Z"/><path class="cls-82" d="M1455.26,342.91l-38.15,21.28c5.39,15.64-1.22,33.51-7.07,44.89-1.63,3.18,1.76,6.64,4.65,4.72C1461.47,382.83,1455.26,342.91,1455.26,342.91Z"/><path class="cls-83" d="M1426,380.45a14.06,14.06,0,0,1,7.52-12.21l21.19-10.84a50.65,50.65,0,0,0,.54-14.49l-38.15,21.28c5.39,15.64-1.22,33.51-7.07,44.89a3.54,3.54,0,0,0,1.38,4.8,3.6,3.6,0,0,0,1.93.43C1419.22,405.67,1425.7,393.28,1426,380.45Z"/><path class="cls-83" d="M1366.76,297.3a12.75,12.75,0,0,0,13.11-4.38l15.57-18.72a43.28,43.28,0,0,1,13.27,3.37l-29.63,33.24c-12.7-9.76-30.69-7.85-42.59-5-2.81.68-4.82-2.37-3.84-4.81C1342.08,297.39,1355.06,294.13,1366.76,297.3Z"/><path class="cls-84" d="M1515.69,302.7c42.69-39.08,33.1-86.39,33.1-86.39s-40.25-22.65-87.24,10.4-94.13,94.71-94.13,94.71l18.46,25.91,18.45,25.9S1473,341.77,1515.69,302.7Z"/><path class="cls-85" d="M1515.69,302.7c24.88-22.77,32-48.32,33.6-65.69-3.65,15.88-12.25,35.19-31.52,52.83-25.08,23-59.12,43.27-82.94,56.14-16.18,8.73-35.92,3.86-46.88-11.51L1373.34,314c-3.79,4.68-5.92,7.46-5.92,7.46l18.46,25.91,18.45,25.9S1473,341.77,1515.69,302.7Z"/><path class="cls-81" d="M1402.45,370.59l-4.91-6.9-4.92-6.89s-11.61-.66-18.7,5.05l9.44,13.24,9.44,13.25C1399.88,382.64,1402.45,370.59,1402.45,370.59Z"/><path class="cls-86" d="M1383.83,362.15a13,13,0,0,1,13.21,5.46l.49.68,4,5.61c.64-2,.93-3.31.93-3.31l-4.91-6.9-4.92-6.89s-11.61-.66-18.7,5.05l2.2,3.09A26,26,0,0,1,1383.83,362.15Z"/><path class="cls-86" d="M1371.89,345.39a15,15,0,0,0-1.35-15l-.49-.68-4-5.61a25.42,25.42,0,0,1,3.26,0l4.91,6.89,4.91,6.89s-2.56,12.06-9.65,17.76l-2.21-3.1A28.43,28.43,0,0,0,1371.89,345.39Z"/><path class="cls-82" d="M1431.93,315.2c2.37-3.39-.73-7.74-4.45-6.24a115.45,115.45,0,0,0-29,17.06c-20.11,16.17-31.21,26.47-26.76,32.71s16.79-2.32,36.89-18.49A122.1,122.1,0,0,0,1431.93,315.2Z"/><path class="cls-83" d="M1429.17,319a157.27,157.27,0,0,1-16.06,14.91c-20.11,16.17-32.3,24.93-35.67,20.21s7.89-14.81,28-31a154.52,154.52,0,0,1,17.87-12.38A116.52,116.52,0,0,0,1398.46,326c-20.11,16.17-31.21,26.47-26.76,32.71s16.79-2.32,36.89-18.49A121.59,121.59,0,0,0,1429.17,319Z"/><ellipse class="cls-87" cx="1482.32" cy="269.77" rx="31.5" ry="33.47"/><ellipse class="cls-81" cx="1482.32" cy="269.77" rx="21.06" ry="22.38"/><path class="cls-88" d="M1496.87,290.19a2.29,2.29,0,0,1,3.22.33l.12.16a2.64,2.64,0,0,1-.46,3.56,2.31,2.31,0,0,1-3.25-.36l-.1-.14A2.65,2.65,0,0,1,1496.87,290.19Z"/><path class="cls-88" d="M1479,295.14a2.51,2.51,0,0,1,2,2.86,2.43,2.43,0,0,1-2.64,2.18h0a2.53,2.53,0,0,1-2-2.87,2.41,2.41,0,0,1,2.65-2.16Z"/><path class="cls-88" d="M1463.1,285.23a2.64,2.64,0,0,1-.47,3.55,2.29,2.29,0,0,1-3.22-.33l-.12-.16a2.64,2.64,0,0,1,.46-3.56,2.31,2.31,0,0,1,3.25.36Z"/><path class="cls-88" d="M1458.44,266.26a2.42,2.42,0,0,1-2.63,2.17h-.06a2.51,2.51,0,0,1-2-2.86,2.41,2.41,0,0,1,2.65-2.16h0A2.51,2.51,0,0,1,1458.44,266.26Z"/><path class="cls-88" d="M1467.77,249.35a2.32,2.32,0,0,1-3.25-.35l-.1-.14a2.66,2.66,0,0,1,.47-3.56,2.29,2.29,0,0,1,3.23.35.76.76,0,0,1,.11.14A2.64,2.64,0,0,1,1467.77,249.35Z"/><path class="cls-88" d="M1485.62,244.4a2.51,2.51,0,0,1-2-2.86,2.42,2.42,0,0,1,2.66-2.17h0a2.51,2.51,0,0,1,2,2.86,2.43,2.43,0,0,1-2.64,2.18Z"/><path class="cls-88" d="M1501.54,254.31a2.65,2.65,0,0,1,.46-3.55,2.3,2.3,0,0,1,3.24.34l.11.15a2.64,2.64,0,0,1-.47,3.55,2.28,2.28,0,0,1-3.21-.31Z"/><path class="cls-88" d="M1506.2,273.28a2.43,2.43,0,0,1,2.64-2.18h.05a2.53,2.53,0,0,1,2,2.87,2.42,2.42,0,0,1-2.65,2.17h0A2.52,2.52,0,0,1,1506.2,273.28Z"/><path class="cls-82" d="M1548.79,216.31s-13.73-7.7-34.5-7.55c.66,6.3,2.79,17.93,9.64,27.55h0c6.85,9.61,16.81,14.94,22.34,17.33C1552,232.45,1548.79,216.31,1548.79,216.31Z"/><path class="cls-89" d="M1330.87,417.3s28.11,2.83,44.17-10.08c9-7.27,10.09-16.16,9.29-22.56A16.66,16.66,0,0,0,1375,371.5c-5.57-2.56-13.92-3.89-23,3.38C1335.94,387.79,1330.87,417.3,1330.87,417.3Z"/><path class="cls-79" d="M1345.39,405.62s20,2,31.44-7.18a17,17,0,0,0,6.62-16.05,11.91,11.91,0,0,0-6.68-9.37c-4-1.82-9.91-2.77-16.34,2.4C1349,384.62,1345.39,405.62,1345.39,405.62Z"/><path class="cls-90" d="M1359.24,394.49s12.28,1.24,19.31-4.41a10.47,10.47,0,0,0,4.06-9.86,7.32,7.32,0,0,0-4.1-5.75,9,9,0,0,0-10,1.47C1361.45,381.59,1359.24,394.49,1359.24,394.49Z"/><path class="cls-89" d="M1307.55,384.57s28.11,2.83,44.17-10.08c9-7.27,10.09-16.16,9.29-22.56a16.69,16.69,0,0,0-9.38-13.16c-5.57-2.56-13.92-3.89-23,3.38C1312.62,355.06,1307.55,384.57,1307.55,384.57Z"/><path class="cls-79" d="M1322.07,372.89s20,2,31.45-7.18a17,17,0,0,0,6.61-16,11.86,11.86,0,0,0-6.68-9.37c-4-1.82-9.91-2.77-16.34,2.4C1325.68,351.89,1322.07,372.89,1322.07,372.89Z"/><path class="cls-90" d="M1335.92,361.76s12.29,1.24,19.31-4.41a10.45,10.45,0,0,0,4.06-9.86,7.26,7.26,0,0,0-4.1-5.75,9,9,0,0,0-10,1.47C1338.13,348.86,1335.92,361.76,1335.92,361.76Z"/><path class="cls-91" d="M1461.74,265.09l41.54,2.77a23,23,0,0,0-3.79-11l-32.7-2.18A22.79,22.79,0,0,0,1461.74,265.09Z"/><path class="cls-91" d="M1463.23,279.23l36.9,2.45a23.15,23.15,0,0,0,2.47-6L1461.48,273A23.31,23.31,0,0,0,1463.23,279.23Z"/><ellipse class="cls-92" cx="1859.86" cy="523.36" rx="97.36" ry="103.44"/><path class="cls-93" d="M1877.64,585.84c7-3.05,14.15-6.13,21.68-7.15,3.69-.5,8.22,0,9.89,3.51,1.29,2.71.13,6.16-1.94,8.25s-4.87,3.15-7.57,4.15l-33,12.22c-6.76,2.5-19.73,4.34-12.19-6.43C1859.64,593.05,1870,589.16,1877.64,585.84Z"/><path class="cls-94" d="M1793.23,586.46c29.49-22.58,59.38-47.27,95-54.87,22.8-4.86,48.57-3.19,68.89-13a109.84,109.84,0,0,0-4.25-25.71c-.93-3.19-2-6.29-3.18-9.31l-25.13,10.3c-6.22,2.55-12.74,5.15-19.36,4.36s-13.28-6.14-13.42-13.22c-.07-3.46,1.38-6.75,2.93-9.8a109.52,109.52,0,0,1,25.57-32.81l.06,0A97,97,0,0,0,1897.41,428a74,74,0,0,0-12.36,11.83c-17.45,21.1-23.67,51.67-44.09,69.52-15.57,13.61-36.76,17.39-54,28.52A77.83,77.83,0,0,0,1767.5,556a104.56,104.56,0,0,0,19,35.36C1788.8,589.82,1791,588.14,1793.23,586.46Z"/><path class="cls-93" d="M1792.51,523.67c5.3-2.63,10.81-4.75,16.14-7.3A117.74,117.74,0,0,0,1852,480.45a15.45,15.45,0,0,0,3.15-6.08c1-5.41-3.68-10.55-8.78-11.59s-10.3.89-15.1,3a290.86,290.86,0,0,0-67.75,42.29,109.23,109.23,0,0,0,.84,35.58C1774.32,537.45,1784.66,527.59,1792.51,523.67Z"/><path class="cls-93" d="M1851.86,441.3a6.13,6.13,0,0,0,3.33,4.43c3.66,1.95,8.23.79,11.52-1.78s5.54-6.35,7.61-10.09c1.45-2.62,5.78-6.9,8.9-10.93a92.37,92.37,0,0,0-17-2.8A76.79,76.79,0,0,0,1853.47,436,8.58,8.58,0,0,0,1851.86,441.3Z"/><path class="cls-94" d="M1924.4,539.07c-24.36,3.44-49.82,4.57-71.55,16.75-13,7.32-24,18.22-34.68,29l-16.8,16.86c-.52.52-1.44,1.32-2.57,2.28a97,97,0,0,0,23.2,14.66c10.75-7.16,17.77-20.12,27.59-29.14,8.55-7.87,19.19-12.65,29.75-17q22.64-9.27,46-16.47c9.88-3,20.18-6.06,29.68-10.38a109.78,109.78,0,0,0,1.89-12.75Q1940.76,536.74,1924.4,539.07Z"/><path class="cls-93" d="M1770.42,482.54c6.09-.3,13.14-6.2,17.34-8.62A260,260,0,0,0,1838,436.21c4.32-4.13,8.73-9,10-15.51a94,94,0,0,0-16.9,3.82C1802.77,433.82,1781.3,455.66,1770.42,482.54Z"/><path class="cls-95" d="M1934.35,456.78a109.68,109.68,0,0,1,2.52,23.34c0,57.13-43.59,103.44-97.36,103.44-29.9,0-56.63-14.33-74.49-36.86,10,45.88,48.62,80.1,94.84,80.1,53.77,0,97.36-46.31,97.36-103.44A106.94,106.94,0,0,0,1934.35,456.78Z"/><path class="cls-96" d="M885.29,964.4l-57.66-38a10.35,10.35,0,0,0-14.33,2.93c-.14.22-.27.44-.4.67l-10.1,17.29A11.78,11.78,0,0,0,806.25,963l57.66,38Z"/><path class="cls-97" d="M809.74,935.85a10.34,10.34,0,0,1,14-4.08c.23.13.47.27.69.42L882,970.11l3.33-5.71-57.66-38a10.34,10.34,0,0,0-14.34,2.89c-.15.23-.29.47-.43.71l-10.1,17.29a11.71,11.71,0,0,0-.86,1.87Z"/><polygon class="cls-98" points="874.31 983.2 874.3 983.2 863.91 1001 884.37 1005.11 890.81 994.09 890.81 994.08 897.25 983.07 885.29 964.4 874.31 983.2"/><polygon class="cls-99" points="902.54 986.6 889.68 1008.6 884.37 1005.11 897.23 983.1 902.54 986.6"/><polygon class="cls-98" points="917.1 989.77 902.54 986.59 896.42 997.06 896.11 997.59 889.68 1008.6 898.83 1021.05 907.96 1005.42 907.65 1005.19 907.97 1005.4 917.1 989.77"/><g class="cls-100"><polygon class="cls-101" points="871 988.9 871 988.89 881.99 970.09 893.84 988.6 899.23 992.29 899.24 992.28 913.78 995.46 917.1 989.77 902.54 986.59 902.54 986.6 897.14 982.91 885.29 964.4 874.31 983.2 874.3 983.2 863.91 1001 863.92 1001 871 988.9"/><polygon class="cls-101" points="904.35 1010.89 904.64 1011.1 904.65 1011.09 904.35 1010.89"/></g><path class="cls-99" d="M836.88,927.63a3,3,0,0,1,.88,4l-22.69,38.83a2.62,2.62,0,0,1-3.56,1,1,1,0,0,1-.17-.1h0a3,3,0,0,1-.87-4l22.68-38.83a2.63,2.63,0,0,1,3.58-1l.15.09Z"/><path class="cls-97" d="M836.88,927.63a2.55,2.55,0,0,0-2.76,0,2.34,2.34,0,0,1,.72.28,3,3,0,0,1,.88,4L813,970.69a2.76,2.76,0,0,1-1,.95,2.59,2.59,0,0,0,3-1.21l22.69-38.83A3,3,0,0,0,836.88,927.63Z"/><path class="cls-102" d="M852.33,1004.73a1,1,0,0,1,.42,1.34l-28.5,48.78a.91.91,0,0,1-1.27.23l0,0-35.89-23.67a1,1,0,0,1-.42-1.34l28.5-48.78a.91.91,0,0,1,1.27-.23l0,0Z"/><line class="cls-102" x1="792.93" y1="1035.26" x2="822.33" y2="984.94"/><line class="cls-102" x1="800.4" y1="1040.18" x2="829.79" y2="989.87"/><line class="cls-102" x1="807.85" y1="1045.1" x2="837.25" y2="994.78"/><line class="cls-102" x1="815.32" y1="1050.02" x2="844.71" y2="999.7"/><line class="cls-102" x1="791.18" y1="1022.26" x2="828.8" y2="1047.06"/><line class="cls-102" x1="796.07" y1="1013.89" x2="833.69" y2="1038.69"/><line class="cls-102" x1="800.96" y1="1005.51" x2="838.58" y2="1030.32"/><line class="cls-102" x1="805.85" y1="997.14" x2="843.47" y2="1021.95"/><line class="cls-102" x1="810.74" y1="988.77" x2="848.36" y2="1013.57"/><line class="cls-102" x1="832.7" y1="991.78" x2="837.49" y2="983.58"/><path class="cls-102" d="M883.3,951.73a.92.92,0,0,0,1.29-.17l0,0,28.5-48.79a1,1,0,0,0-.42-1.33L876.8,877.74a.92.92,0,0,0-1.29.16l0,0L847,926.72a1,1,0,0,0,.42,1.34Z"/><line class="cls-102" x1="882.69" y1="881.63" x2="853.29" y2="931.94"/><line class="cls-102" x1="890.15" y1="886.54" x2="860.76" y2="936.86"/><line class="cls-102" x1="897.61" y1="891.47" x2="868.22" y2="941.78"/><line class="cls-102" x1="905.07" y1="896.39" x2="875.68" y2="946.7"/><line class="cls-102" x1="870.95" y1="885.72" x2="908.56" y2="910.53"/><line class="cls-102" x1="866.05" y1="894.09" x2="903.67" y2="918.9"/><line class="cls-102" x1="861.16" y1="902.47" x2="898.78" y2="927.27"/><line class="cls-102" x1="856.27" y1="910.84" x2="893.89" y2="935.65"/><line class="cls-102" x1="851.38" y1="919.21" x2="888.99" y2="944.02"/><line class="cls-102" x1="863.66" y1="938.78" x2="858.87" y2="946.98"/><line class="cls-103" x1="907.97" y1="1005.4" x2="919.16" y2="1012.78"/><path class="cls-99" d="M920,1009a3.82,3.82,0,0,1,1.11,5,3.33,3.33,0,0,1-4.53,1.3l-.2-.12a3.79,3.79,0,0,1-1.11-5,3.33,3.33,0,0,1,4.53-1.3Z"/><path class="cls-97" d="M920,1009a3.29,3.29,0,0,0-2.73-.4,3.06,3.06,0,0,1,.57.29,3.79,3.79,0,0,1,1.11,5,3.41,3.41,0,0,1-2,1.59,3.34,3.34,0,0,0,4.17-1.47A3.81,3.81,0,0,0,920,1009Z"/><path class="cls-104" d="M844.61,979.85a1.27,1.27,0,0,1,.37,1.7h0a1.13,1.13,0,0,1-1.52.45l-.08,0-19.69-13a1.28,1.28,0,0,1-.38-1.7h0a1.11,1.11,0,0,1,1.5-.46l.1.06Z"/><path class="cls-105" d="M1697.47,350.51h0c23-31.53,70.36-104,70.36-104s-68.25,50.32-97.93,74.76h0a33.19,33.19,0,0,1,1.1-21.35s-28.39,30.17-16.84,54h0a22.33,22.33,0,0,0,4.86,8.18,20.77,20.77,0,0,0,7.7,5.17h0c22.45,12.28,50.84-17.89,50.84-17.89A27.84,27.84,0,0,1,1697.47,350.51Z"/><path class="cls-106" d="M1684.86,357.64a14.7,14.7,0,0,1-20.75.92c-.32-.3-.63-.6-.92-.92a17,17,0,0,1,0-23c6-6.36,66-47.14,66-47.14S1690.84,351.28,1684.86,357.64Z"/><path class="cls-105" d="M1731.72,340.77a6.9,6.9,0,0,1-9.75.42,4.16,4.16,0,0,1-.42-.42,8,8,0,0,1,0-10.81c2.81-3,31-22.14,31-22.14S1734.53,337.78,1731.72,340.77Z"/><path class="cls-105" d="M1704.54,283.39a6.89,6.89,0,0,1-9.73.44,6.09,6.09,0,0,1-.44-.44,8,8,0,0,1,0-10.81c2.81-3,31-22.13,31-22.13S1707.35,280.41,1704.54,283.39Z"/><path class="cls-107" d="M1677.08,358h0a1.09,1.09,0,0,1,.69-.55,11.3,11.3,0,0,0,3-1.31,1,1,0,0,1,.85-.13h0a2.7,2.7,0,0,0,3.2-3.4h0a1.25,1.25,0,0,1,.12-.91,13,13,0,0,0,1.24-3.19,1.19,1.19,0,0,1,.51-.73h0a2.87,2.87,0,0,0,.84-4,2.92,2.92,0,0,0-.84-.84h0a1.19,1.19,0,0,1-.51-.73A12.84,12.84,0,0,0,1685,339a1.25,1.25,0,0,1-.12-.91h0a2.7,2.7,0,0,0-3.2-3.4h0a1,1,0,0,1-.85-.13,11.66,11.66,0,0,0-3-1.32,1.13,1.13,0,0,1-.69-.54h0a2.53,2.53,0,0,0-3.4-1.12,2.48,2.48,0,0,0-1.12,1.12h0a1.08,1.08,0,0,1-.68.54,11.33,11.33,0,0,0-3,1.32,1,1,0,0,1-.85.13h0a2.7,2.7,0,0,0-3.2,3.4h0a1.25,1.25,0,0,1-.12.91,13,13,0,0,0-1.24,3.19,1.19,1.19,0,0,1-.51.73h0a2.87,2.87,0,0,0-.84,4,2.92,2.92,0,0,0,.84.84h0a1.19,1.19,0,0,1,.51.73,13,13,0,0,0,1.24,3.19,1.25,1.25,0,0,1,.12.91h0a2.7,2.7,0,0,0,3.2,3.4h0a1,1,0,0,1,.85.13,11.3,11.3,0,0,0,3,1.31,1.1,1.1,0,0,1,.68.55h0A2.52,2.52,0,0,0,1676,359,2.46,2.46,0,0,0,1677.08,358Z"/><path class="cls-108" d="M1677.84,345.44a2.64,2.64,0,0,1-3.73.16l-.16-.16a3.05,3.05,0,0,1,0-4.14,2.64,2.64,0,0,1,3.73-.16l.16.16A3.07,3.07,0,0,1,1677.84,345.44Z"/><path class="cls-108" d="M1676.64,355.68a2.64,2.64,0,0,1-3.73.16,1.21,1.21,0,0,1-.16-.16,3.07,3.07,0,0,1,0-4.14,2.64,2.64,0,0,1,3.73-.16l.16.16A3,3,0,0,1,1676.64,355.68Z"/><path class="cls-108" d="M1681.7,338.89a1.42,1.42,0,0,1-2,.08l-.08-.08a1.65,1.65,0,0,1,0-2.23,1.42,1.42,0,0,1,2-.08.6.6,0,0,1,.08.08A1.67,1.67,0,0,1,1681.7,338.89Z"/><path class="cls-108" d="M1670.21,340.43a1.42,1.42,0,0,1-2,.08l-.08-.08a1.63,1.63,0,0,1,0-2.22,1.42,1.42,0,0,1,2-.08l.08.08A1.63,1.63,0,0,1,1670.21,340.43Z"/><ellipse class="cls-108" cx="1668.09" cy="347.44" rx="2.62" ry="2.78"/><ellipse class="cls-108" cx="1683.1" cy="346.9" rx="1.48" ry="1.57"/><path class="cls-109" d="M1684.83,352.56h0a1.25,1.25,0,0,1,.12-.91,13,13,0,0,0,1.24-3.19.09.09,0,0,0,0-.07c-1.42,1.8-5.86,6.54-12.07,4.91-7.61-2-10.23-9.43-10.69-11.11a1.19,1.19,0,0,1-.51.73h0a2.87,2.87,0,0,0-.84,4,2.92,2.92,0,0,0,.84.84h0a1.19,1.19,0,0,1,.51.73,13,13,0,0,0,1.24,3.19,1.25,1.25,0,0,1,.12.91h0a2.7,2.7,0,0,0,3.2,3.4,1,1,0,0,1,.85.13,11.3,11.3,0,0,0,3,1.31,1.1,1.1,0,0,1,.68.55h0a2.53,2.53,0,0,0,3.4,1.12A2.48,2.48,0,0,0,1677,358h0a1.09,1.09,0,0,1,.69-.55,11.3,11.3,0,0,0,3-1.31,1,1,0,0,1,.85-.13h0a2.7,2.7,0,0,0,3.28-1.95A2.74,2.74,0,0,0,1684.83,352.56Z"/><path class="cls-84" d="M784.45,493.3c-20.62-186.18,82.75-217.88,72.61-305.13C838.63,29.53,637.93,30.64,612-3H0V1081.33c407.66,26.67,184-26.09,360-109.52,164.79-56.37,424.27,59.64,515-133.43C931.89,717.5,797.63,612.23,784.45,493.3Z"/><ellipse class="cls-110" cx="855.43" cy="628.4" rx="92" ry="97.74"/><path class="cls-111" d="M899.84,542.8a4.61,4.61,0,0,0-1,3.09,6.13,6.13,0,0,0-8.29,2.54c-.09.17-.17.35-.25.53-.72,1.84-.61,3.9-.91,5.87s-1.24,4.08-3,4.61c-4.14,1.21-6.88-5.28-11.64-4.6a13.66,13.66,0,0,0-9.42,6.11c-1.67,2.65-2.2,8.63,2.33,8.53,2.36-.06,4.31-2.79,6.62-2.27,3.53.79,2.62,3.79.61,5.9-3.21,3.35-6.86,2.6-10.7,3.83-3,1-4.59,4.52-7.63,5.43-.92.27-2.22.55-2.21,1.57,0,.65.6,1.09.95,1.62.88,1.31.2,3.25-1,4.24a11.84,11.84,0,0,1-4.19,1.76,5.9,5.9,0,0,0-3.71,2.56,3.84,3.84,0,0,0,1,4.7c2.47,1.77,7.16-1.4,9-3.2l5.15-5.07c1.5-1.47,3.46-3.06,5.38-2.32A5.71,5.71,0,0,1,869,590l7.83,9c1.46-2.25-.2-5.23-1.81-7.36,1-1.3,3.08-.84,4.1.42s1.32,3,1.74,4.6,1.15,3.3,2.58,4,3.55-.53,3.22-2.16c-.28-1.35-1.93-2-2.14-3.38-.26-1.67,2-2.67,3.41-1.91s2.18,2.39,3,3.8,2.2,2.82,3.78,2.61,3.11-2.14,4.6-1.39a2.53,2.53,0,0,1,1,1,5.25,5.25,0,0,1-.71,6c-1.67,1.72-2.76,2.8-3,3.73a6.67,6.67,0,0,0-.94-.53c-3.61-1.58-7.7-.46-11.56.17s-8.42.49-10.89-2.73c-1.35-1.75-1.9-4.22-3.67-5.48-2.14-1.51-5-.55-7.38.47-4.84,2.06-9.74,4.2-13.88,7.58-9.22,7.51-13.59,21.15-10.59,33.08,1.91,7.63,7.75,15,15.18,14.93,3.32,0,6.46-1.57,9.75-2s7.26.62,8.45,3.91c.88,2.42,0,5.31,1,7.67.93,2.15,3.27,3.35,4.13,5.53,1.92,4.87-4.64,9.81-3.36,14.91.43,1.72,1.69,3,2.34,4.69,1.58,4-.71,9,1.41,12.71,2.53,4.39,9.15,3.08,12.61-.52s5.32-8.68,8.91-12.14c2.61-2.52,6.05-4.08,8.24-7,3.4-4.57,2.89-11.13,5-16.5,3.4-8.54,13-13,16.09-21.67,1.15-3.23.53-8-2.66-8.63a5.54,5.54,0,0,0-2.07,0,6.42,6.42,0,0,1-5.27.26c-2.4-.94-4.26-3-5.89-5.08a57.19,57.19,0,0,1-6.92-11.47,66.23,66.23,0,0,0-3.87-7.89c3.41,2.43,5.65,5.93,8,9.52a59.54,59.54,0,0,0,7.75,9.38,5.39,5.39,0,0,0,3,1.83c2.34.27,3.94-2.36,5-4.61.88-2,1.77-3.93,2.66-5.89,1-2.15,1.82-5,.15-6.64-.63-.61-1.51-.87-2.11-1.51-1.27-1.38-.47-4,1.14-4.84a5.79,5.79,0,0,1,5.26.34,13.73,13.73,0,0,1,7.28,11.83c.05,2.43-.52,4.87-.16,7.27s2.14,4.86,4.41,4.66a4.66,4.66,0,0,0,2.27-1,10.21,10.21,0,0,0,1.92-1.91c0-1.06.08-2.12.08-3.2C947.43,591.54,928.21,559.45,899.84,542.8Z"/><path class="cls-111" d="M821.8,676.08l-8.88-9.48a6.67,6.67,0,0,0-2.88-2.15c-1.81-.5-4,.56-5.45-.72a5.2,5.2,0,0,1-1.07-1.66c-1.14-2.26-3.08-3.74-4.31-5.83s-1.43-4.7-2-7c-1.36-5.89-6.87-10.37-12.58-10.24a5.2,5.2,0,0,0-3.17.93c-2.27,1.78-1.66,5.63-.07,8.11,1.94,3,4.19,5-.45,6.72a6.56,6.56,0,0,1-7-1.86,23.19,23.19,0,0,0-2.49-2.26,10.26,10.26,0,0,0-6.18-2.43A98.41,98.41,0,0,0,803,708.68c.5-.11,1-.24,1.5-.32,5.67-.84,11.4.72,17.12.67,10.73-.08,19-9,12.42-20C830.86,683.7,825.87,680.43,821.8,676.08Z"/><path class="cls-111" d="M765.1,609.89c3.46,4.81,12.74-9.18,14.81-11.74a20.42,20.42,0,0,1,4.46-4.49c4.07-2.65,10.22-2.53,12.26-7.12.68-1.55.72-3.39,1.59-4.82s3.26-2,3.92-.46c.58,1.36-.74,2.93-.37,4.37s2.27,1.83,3.49,1.09a7.29,7.29,0,0,0,2.48-3.5c-1.67-1.07-1.42-3.81-.39-5.58s2.62-3.22,3.14-5.22c.35-1.35.17-2.79.42-4.16s1-2.78,1.22-4.24-.26-3.26-1.59-3.69a3.75,3.75,0,0,0-2.52.42l-10.42,4.4c1.31-5.11,6.29-8.85,11.26-8.47,2,.15,3.91.86,5.86.58,4.31-.61,6.8-5.63,10.79-7.48,1.32-.62,3.3-.56,3.72.9a2.81,2.81,0,0,1,0,1.29c-.5,2.34-2.3,4.08-4.05,5.61s-3.6,3.13-4.33,5.4.31,5.35,2.55,5.68,3.9-2,5.47-3.78a13.94,13.94,0,0,1,8.54-4.52,28.22,28.22,0,0,0,4.58-.55c4.49-1.33,6.62-6.65,8.15-11.33a5.05,5.05,0,0,0,.35-2.14c-.28-2-2.62-2.63-4.49-2.85-8.21-.93-16.94-1.78-24.35,2.09-3.11,1.63-6.64,4.09-9.72,2.39-.77-.43-1.42-1.1-2.22-1.48-1.52-.72-3.3-.29-4.88.3h0C784.52,561,769.85,583.58,765.1,609.89Z"/><path class="cls-112" d="M925.82,565.49a103.56,103.56,0,0,1,2.38,22.06c0,54-41.19,97.74-92,97.74-28.25,0-53.51-13.54-70.39-34.83,9.42,43.35,46,75.69,89.62,75.69,50.81,0,92-43.77,92-97.75A101.1,101.1,0,0,0,925.82,565.49Z"/><path class="cls-105" d="M1028.26,802.66a26.78,26.78,0,0,1-37.84,1.66c-.57-.53-1.13-1.08-1.66-1.66a31,31,0,0,1,0-42c10.91-11.59,120.38-85.93,120.38-85.93S1039.17,791.07,1028.26,802.66Z"/><path class="cls-106" d="M1024.44,795.64a19.72,19.72,0,0,1-27.86,1.22c-.43-.39-.83-.8-1.22-1.22a22.82,22.82,0,0,1,0-30.89c8-8.53,67.55-40.87,67.55-40.87S1032.47,787.11,1024.44,795.64Z"/><path class="cls-107" d="M1012.6,794.62h0a1.29,1.29,0,0,1,.79-.62,13.14,13.14,0,0,0,3.45-1.52,1.26,1.26,0,0,1,1-.15h0a3.1,3.1,0,0,0,3.68-3.91h0a1.45,1.45,0,0,1,.14-1,14.58,14.58,0,0,0,1.43-3.66,1.33,1.33,0,0,1,.59-.85h0a3.29,3.29,0,0,0,0-5.53h0a1.34,1.34,0,0,1-.59-.84,14.65,14.65,0,0,0-1.43-3.67,1.45,1.45,0,0,1-.14-1h0a3.1,3.1,0,0,0-3.68-3.91h0a1.22,1.22,0,0,1-1-.15,12.79,12.79,0,0,0-3.45-1.51,1.31,1.31,0,0,1-.79-.63h0a2.92,2.92,0,0,0-5.21,0h0a1.31,1.31,0,0,1-.79.63,12.85,12.85,0,0,0-3.46,1.51,1.18,1.18,0,0,1-1,.15h0a3.1,3.1,0,0,0-3.68,3.91h0a1.51,1.51,0,0,1-.14,1,14.65,14.65,0,0,0-1.43,3.67,1.34,1.34,0,0,1-.59.84h0a3.29,3.29,0,0,0-1,4.57,3.38,3.38,0,0,0,1,1h0a1.39,1.39,0,0,1,.59.85,14.58,14.58,0,0,0,1.43,3.66,1.51,1.51,0,0,1,.14,1h0a3.1,3.1,0,0,0,3.68,3.91h0a1.22,1.22,0,0,1,1,.15,13.2,13.2,0,0,0,3.46,1.52,1.29,1.29,0,0,1,.79.62h0a2.93,2.93,0,0,0,3.92,1.29A3,3,0,0,0,1012.6,794.62Z"/><ellipse class="cls-108" cx="1011.23" cy="777.85" rx="3.16" ry="3.36"/><ellipse class="cls-108" cx="1009.85" cy="789.62" rx="3.16" ry="3.36"/><ellipse class="cls-108" cx="1016.7" cy="771.41" rx="1.7" ry="1.81"/><path class="cls-108" d="M1004.7,774.47a1.65,1.65,0,0,1-2.33.08l-.08-.08a1.9,1.9,0,0,1,0-2.56,1.65,1.65,0,0,1,2.33-.08l.08.08A1.9,1.9,0,0,1,1004.7,774.47Z"/><path class="cls-108" d="M1004.39,784.79a2.88,2.88,0,0,1-4.08.18l-.18-.18a3.35,3.35,0,0,1,0-4.52,2.9,2.9,0,0,1,4.1-.16l.16.16A3.35,3.35,0,0,1,1004.39,784.79Z"/><ellipse class="cls-108" cx="1019.52" cy="781.91" rx="1.7" ry="1.81"/><path class="cls-109" d="M1021.5,788.41h0a1.51,1.51,0,0,1,.14-1,14.58,14.58,0,0,0,1.43-3.66v-.09c-1.64,2.07-6.75,7.52-13.89,5.64-8.75-2.3-11.76-10.83-12.29-12.77a1.34,1.34,0,0,1-.59.84h0a3.29,3.29,0,0,0-1,4.57,3.38,3.38,0,0,0,1,1h0a1.39,1.39,0,0,1,.59.85,14.58,14.58,0,0,0,1.43,3.66,1.51,1.51,0,0,1,.14,1h0a3.1,3.1,0,0,0,3.68,3.91,1.22,1.22,0,0,1,1,.15,13.2,13.2,0,0,0,3.46,1.52,1.29,1.29,0,0,1,.79.62h0a2.93,2.93,0,0,0,3.92,1.29,3,3,0,0,0,1.29-1.29h0a1.29,1.29,0,0,1,.79-.62,13.14,13.14,0,0,0,3.45-1.52,1.26,1.26,0,0,1,1-.15h0a3.1,3.1,0,0,0,3.71-2.33A3.13,3.13,0,0,0,1021.5,788.41Z"/></g></svg>